<svg width="251" height="324" viewBox="0 0 251 324" fill="none" xmlns="http://www.w3.org/2000/svg">
<path fill-rule="evenodd" clip-rule="evenodd" d="M250.244 255.499C249.679 255.066 247.472 255.788 245.34 257.103C241.962 259.187 241.466 260.168 241.466 264.751C241.466 267.643 241.084 270.008 240.615 270.008C240.147 270.006 239.765 270.682 239.765 271.507C239.765 272.334 238.909 274.068 237.861 275.362C236.08 277.565 236.083 277.745 237.909 278.179C240.451 278.785 239.326 283.559 235.638 287.81C234.165 289.507 232.961 291.796 232.961 292.895C232.961 293.994 232.196 295.677 231.26 296.638C229.074 298.88 229.064 302.244 231.243 302.244C232.204 302.244 230.673 304.952 227.677 308.551C222.294 315.019 220.058 316.472 221.212 312.756C221.665 311.297 221.133 310.654 219.476 310.654C218.161 310.654 217.086 309.897 217.086 308.972C217.086 307.664 216.784 307.664 215.726 308.972C214.977 309.897 213.6 310.654 212.664 310.654C211.341 310.654 211.266 310.28 212.324 308.972C214.239 306.605 214.018 302.244 211.984 302.244C211.048 302.244 210.283 301.633 210.283 300.886C210.283 300.14 211.033 299.885 211.952 300.321C212.87 300.756 215.139 300.282 216.994 299.267C221.282 296.921 222.668 291.276 219.698 288.257C217.675 286.199 217.674 286.037 219.652 283.622C220.782 282.244 222.197 281.493 222.797 281.952C224.709 283.412 223.974 279.692 221.622 275.995C220.375 274.035 219.354 271.886 219.354 271.219C219.354 270.551 220.375 270.006 221.622 270.006C223.554 270.006 223.89 269.071 223.89 263.699C223.89 260.23 223.502 257.391 223.029 257.391C222.555 257.391 221.497 256.064 220.677 254.441C219.59 252.289 219.563 251.779 220.577 252.553C221.644 253.367 221.757 252.176 221.066 247.444C220.571 244.049 220.267 237.96 220.392 233.914C220.528 229.5 220.139 226.555 219.419 226.555C218.76 226.555 218.22 225.332 218.22 223.835C218.22 222.338 217.702 220.717 217.068 220.234C216.434 219.749 216.209 218.766 216.568 218.049C216.926 217.331 216.65 216.744 215.952 216.744C215.205 216.744 215.061 216.025 215.602 214.992C217.149 212.037 216.624 206.405 214.561 203.832C213.4 202.384 212.902 200.42 213.34 199.011C213.881 197.272 213.617 196.853 212.358 197.45C211.049 198.071 210.758 197.481 211.143 194.987C211.463 192.92 210.769 190.539 209.266 188.544C207.955 186.803 206.881 184.175 206.881 182.705C206.881 181.234 206.079 176.623 205.1 172.457C203.863 167.196 202.737 164.876 201.414 164.862C199.991 164.845 199.879 164.551 200.972 163.694C202.705 162.335 201.321 156.692 198.563 153.86C197.599 152.872 197.079 151.197 197.408 150.138C197.737 149.079 196.218 146.001 194.031 143.299C191.504 140.176 190.251 137.465 190.591 135.859C190.885 134.469 190.077 131.943 188.798 130.244C187.518 128.545 186.47 126.308 186.47 125.274C186.47 122.905 177.928 106.431 174.385 101.969C172.925 100.128 171.729 98.079 171.729 97.4132C171.729 96.7474 170.819 95.0767 169.704 93.6989C168.591 92.3224 166.235 88.8534 164.468 85.9898C162.701 83.1276 160.311 80.7841 159.158 80.7841C157.821 80.7841 157.282 80.0693 157.672 78.812C158.472 76.2358 145.135 59.381 140.263 56.8132C138.168 55.7087 136.578 53.8431 136.578 52.4891C136.578 49.4853 132.348 45.743 128.955 45.743C127.535 45.743 126.373 45.1038 126.373 44.3217C126.373 41.6964 119.037 34.6195 115.395 33.7323C113.412 33.2487 111.499 31.9185 111.144 30.7762C110.677 29.2694 109.567 28.9526 107.098 29.624C104.295 30.3851 103.818 30.1581 104.384 28.3331C104.828 26.9006 104.448 26.1199 103.305 26.1199C102.334 26.1199 101.132 25.2341 100.633 24.1506C100.134 23.0685 98.705 21.964 97.4577 21.6977C96.2103 21.4314 94.5151 20.425 93.6919 19.4621C92.8676 18.4978 91.4637 17.71 90.5736 17.71C89.6824 17.71 88.9532 17.0415 88.9532 16.2257C88.9532 15.3861 88.3375 15.2193 87.5358 15.8402C84.9063 17.8782 79.6721 15.773 71.3775 9.34081C69.2944 7.72472 65.7714 6.66227 62.2891 6.5992C58.9111 6.53893 54.8857 5.35874 52.3718 3.69359C47.6944 0.594548 42.0168 0.103972 37.1739 2.37884C34.9559 3.42167 33.8855 3.42447 33.6066 2.39006C33.3276 1.35704 32.5327 1.35985 30.9588 2.39987C29.3577 3.45951 28.276 3.44269 27.2022 2.341C26.0807 1.19025 25.2666 1.322 24.0272 2.854C22.7822 4.3916 22.0326 4.51075 21.0722 3.32355C20.1106 2.13496 19.7841 2.15318 19.7841 3.39644C19.7841 4.31311 17.743 5.46526 15.2484 5.95864C12.5122 6.49968 10.7127 7.61819 10.7127 8.77875C10.7127 10.1229 9.17848 10.7018 5.61003 10.7018C1.49277 10.7018 0.514206 11.1756 0.543686 13.1547C0.593582 16.5789 3.52817 21.2268 4.15976 18.8832C4.45685 17.7829 6.23369 17.2363 8.80995 17.4507C11.1039 17.6414 12.9805 17.148 12.9805 16.3518C12.9805 14.3994 22.3796 14.5129 25.9242 16.5088C28.1875 17.7843 29.5267 17.6582 32.4738 15.8935C34.9911 14.3867 36.4175 14.1555 36.9255 15.1717C37.3372 15.9944 38.1797 16.2804 38.7999 15.8066C39.419 15.3342 41.8581 16.5677 44.2201 18.5482C47.8543 21.5968 48.9406 21.9094 51.2935 20.5848C53.61 19.2799 53.9661 19.3654 53.4286 21.0964C52.8424 22.983 55.3631 25.021 58.9043 25.5228C59.528 25.6111 61.4749 26.4115 63.2303 27.3029C64.9856 28.1944 67.1116 28.9232 67.9553 28.9232C68.7978 28.9232 69.7469 29.7123 70.0633 30.6753C70.5043 32.0208 70.8615 32.0391 71.602 30.7552C72.288 29.5638 73.6691 30.4776 76.4019 33.9327C79.011 37.2322 80.899 38.5245 82.3028 37.9736C83.5274 37.4929 85.3349 38.2806 86.75 39.9107C90.4897 44.2166 94.8326 44.7099 97.1492 41.0923C98.8331 38.4628 99.112 38.3773 99.1336 40.4868C99.1472 41.8352 99.9341 42.9397 100.881 42.9397C102.152 42.9397 102.417 43.8577 101.892 46.4438C101.46 48.5701 101.675 50.0166 102.438 50.1231C103.128 50.2198 104.204 50.4553 104.828 50.6487C105.452 50.8421 106.472 51.0776 107.096 51.1743C107.72 51.271 108.23 52.2956 108.23 53.452C108.23 54.6084 108.771 55.5545 109.431 55.5545C110.091 55.5545 110.346 54.9826 109.997 54.2832C109.646 53.5852 110.347 53.3315 111.551 53.7211C112.757 54.1108 113.537 55.155 113.286 56.0436C112.71 58.0774 115.225 62.2501 117.375 62.8262C118.27 63.0673 119.697 64.4185 120.548 65.8285C121.661 67.6773 122.904 68.1426 124.997 67.4923C127.378 66.7536 127.669 66.94 126.606 68.5211C125.58 70.0503 126.661 72.2593 131.795 79.1358C135.361 83.9126 138.916 87.8148 139.696 87.8063C140.475 87.7993 141.114 88.3011 141.114 88.9234C141.114 90.726 150.894 103.21 152.307 103.21C153.011 103.21 154.696 104.581 156.052 106.258C157.684 108.275 157.907 109.015 156.712 108.448C153.489 106.919 153.717 111.053 157.103 115.531C158.92 117.933 160.912 121.348 161.53 123.118C163.193 127.888 165.309 131.8 166.91 133.065C167.689 133.682 168.329 135.259 168.329 136.57C168.33 137.88 169.606 140.784 171.164 143.026C172.723 145.265 173.997 148.261 173.997 149.683C173.997 151.105 174.763 152.268 175.698 152.268C176.773 152.268 177.399 153.607 177.399 155.907C177.399 157.907 178.161 161.219 179.093 163.265C180.024 165.312 181.792 169.981 183.021 173.643C184.25 177.306 185.784 180.301 186.43 180.301C187.076 180.301 187.604 181.495 187.604 182.954C187.604 184.413 188.361 185.966 189.286 186.405C190.211 186.844 190.701 188.065 190.373 189.117C190.047 190.17 190.311 192.759 190.961 194.871C191.896 197.913 192.672 198.548 194.693 197.928C196.095 197.499 196.604 197.509 195.825 197.952C194.132 198.912 193.938 203.605 195.542 204.83C196.166 205.306 196.717 207.078 196.765 208.767C196.814 210.456 197.112 211.05 197.426 210.086C198.224 207.646 200.078 207.891 200.078 210.436C200.078 211.593 200.572 212.539 201.176 212.539C201.78 212.539 201.98 213.485 201.622 214.641C200.854 217.114 197.81 217.487 197.81 215.108C197.81 214.21 197.473 213.89 197.06 214.399C196.649 214.908 197.238 216.59 198.37 218.137C199.536 219.728 199.861 220.949 199.119 220.949C197.515 220.949 197.372 226.056 198.944 227.256C199.567 227.733 200.078 229.346 200.078 230.843C200.078 232.85 200.896 233.593 203.196 233.674L206.314 233.785L203.36 235.125C200.981 236.204 200.514 237.159 200.96 240.035C201.262 241.999 202.206 243.934 203.056 244.338C203.906 244.74 204.324 245.622 203.987 246.296C203.651 246.97 203.926 248.797 204.601 250.354C205.442 252.296 205.453 253.186 204.639 253.186C203.172 253.186 204.452 264.693 206.065 265.995C206.674 266.487 206.772 267.688 206.285 268.665C205.713 269.807 205.854 270.09 206.679 269.46C208.39 268.152 207.637 282.247 205.88 284.419C204.054 286.676 204.262 291.498 206.146 290.603C207.231 290.089 207.645 291.067 207.564 293.955C207.5 296.197 206.852 298.034 206.124 298.036C205.394 298.038 204.052 298.394 203.14 298.825C202.024 299.355 201.086 298.209 200.271 295.321C198.969 290.702 197.902 290.076 195.782 292.696C194.744 293.98 194.273 293.348 193.718 289.924C193.324 287.483 192.425 284.903 191.719 284.191C189.459 281.901 177.399 281.674 177.399 283.92C177.399 286.26 183.769 289.339 185.761 287.963C188.209 286.268 188.131 288.144 185.66 290.376C183.833 292.027 183.85 292.447 185.943 297.285C187.458 300.788 189.19 302.691 191.352 303.232C193.291 303.717 194.317 304.719 193.982 305.8C193.272 308.086 197.236 309.401 198.844 307.413C200.322 305.586 202.995 309.524 203.897 314.859C204.623 319.161 209.895 322.609 212.172 320.272C213.289 319.127 213.685 319.158 213.685 320.388C213.685 321.393 214.547 321.717 215.857 321.204C217.052 320.735 218.357 321.008 218.759 321.81C219.903 324.1 222.521 323.515 222.347 321.009C222.164 318.388 225.634 315.146 226.921 316.737C227.4 317.33 227.042 318.401 226.125 319.118C224.925 320.056 224.867 320.429 225.92 320.444C229.01 320.489 234.153 314.192 235.29 308.973C235.962 305.888 237.148 303.646 238.108 303.646C239.947 303.646 240.344 301.451 238.727 300.216C238.157 299.78 237.432 300.216 237.116 301.184C236.726 302.38 236.514 302.258 236.453 300.805C236.404 299.626 237.158 297.261 238.129 295.548C239.256 293.557 239.427 292.433 238.6 292.433C237.889 292.433 237.531 291.645 237.803 290.681C238.076 289.718 239.071 289.094 240.014 289.297C242.087 289.743 243.58 287.563 245.142 281.814C246.098 278.293 245.973 277.215 244.456 275.939C242.805 274.549 242.857 274.367 244.924 274.294C249.577 274.128 251.658 267.876 248.232 264.36C246.687 262.777 246.761 262.224 248.884 259.431C250.199 257.701 250.811 255.931 250.244 255.499ZM246.693 249.182C246.093 248.013 245.448 247.821 245.016 248.684C244.629 249.458 245.076 250.45 246.008 250.893C247.966 251.821 248 251.734 246.693 249.182ZM214.535 265.328C213.755 264.939 214.393 264.621 215.952 264.621C217.512 264.621 218.149 264.939 217.37 265.328C216.59 265.717 215.314 265.717 214.535 265.328ZM208.552 243.104C208.203 242.673 208.833 241.889 209.951 241.362C211.566 240.603 211.697 240.762 210.586 242.147C209.816 243.106 208.901 243.536 208.552 243.104ZM199.511 197.628C198.575 197.184 197.81 196.573 197.81 196.27C197.81 195.967 198.575 195.719 199.511 195.719C200.446 195.719 201.211 196.33 201.211 197.077C201.211 197.823 200.446 198.071 199.511 197.628ZM198.73 205.086C197.827 204.639 198.095 204.307 199.416 204.24C200.612 204.179 201.281 204.51 200.904 204.975C200.528 205.441 199.549 205.491 198.73 205.086ZM54.0137 17.3891C51.9738 18.2301 52.4024 15.3328 54.4639 14.3545C55.5672 13.8317 56.0865 14.1443 55.8099 15.1689C55.5627 16.0841 54.7553 17.0835 54.0137 17.3891Z" fill="black"/>
</svg>
