<svg width="392" height="33" viewBox="0 0 392 33" fill="none" xmlns="http://www.w3.org/2000/svg">
<path fill-rule="evenodd" clip-rule="evenodd" d="M329.169 0.34296C328.143 1.17335 328.382 1.44141 330.092 1.37562C331.349 1.32731 331.574 1.22876 331.191 0.893551C329.99 -0.157677 329.839 -0.198623 329.169 0.34296ZM337.697 4.83996C337.697 5.06516 337.941 5.24942 338.238 5.24942C338.535 5.24942 338.778 5.47462 338.778 5.74978C338.778 6.02521 339.082 6.2567 339.453 6.26434C339.825 6.27199 341.21 6.40765 342.531 6.56598C345.253 6.89164 345.802 6.80538 345.802 6.05224C345.802 5.44842 345.234 5.37253 344.289 5.84996C343.785 6.10465 343.641 6.07435 343.641 5.71348C343.641 5.45824 343.25 5.24942 342.773 5.24942C342.223 5.24942 342.018 5.09928 342.216 4.83996C342.463 4.51375 342.036 4.43049 340.112 4.43049C338.326 4.43049 337.697 4.53695 337.697 4.83996ZM346.713 6.56489C346.452 7.22549 346.076 7.43841 345.14 7.45479C344.012 7.47444 344.033 7.49874 345.397 7.75042C346.214 7.90138 346.883 8.15033 346.883 8.30401C346.883 8.4577 346.518 8.51284 346.072 8.42631C344.852 8.18964 345.085 8.43504 346.927 9.3244C348.444 10.0565 350.125 10.1949 350.125 9.58782C350.125 9.45378 350.394 9.34405 350.723 9.34405C351.052 9.34405 351.181 9.52831 351.01 9.75351C350.821 10.003 351.009 10.163 351.492 10.163C351.977 10.163 352.286 10.4267 352.286 10.8402C352.286 11.3589 352.634 11.5543 353.772 11.6755C357.245 12.0446 357.876 12.7019 356.021 14.0182C355.035 14.7176 354.93 14.9673 355.446 15.3847C356.178 15.9771 355.669 16.0358 354.312 15.5155C353.275 15.1178 353.024 14.2576 353.945 14.2576C354.69 14.2576 353.398 13.6022 352.204 13.374C351.59 13.2566 351.193 13.3893 350.931 13.7987C350.604 14.31 350.515 14.3267 350.298 13.9164C350.159 13.6535 349.881 13.4286 349.68 13.4166C345.609 13.1695 343.641 13.3199 343.641 13.8776C343.641 14.0867 343.398 14.2576 343.101 14.2576C342.803 14.2576 342.621 14.1653 342.695 14.0529C342.77 13.9401 342.587 13.823 342.29 13.7922C341.993 13.7616 341.826 13.9764 341.919 14.2699C342.012 14.5633 341.829 14.8036 341.514 14.8036C341.198 14.8036 340.939 14.6665 340.939 14.4986C340.939 14.3283 340.463 14.2568 339.859 14.3368C339.264 14.4151 338.778 14.3946 338.778 14.2909C338.778 13.9955 335.728 13.16 335.349 13.3513C334.904 13.576 331 13.5727 330.277 13.3472C329.968 13.2506 329.458 13.3284 329.143 13.5203C328.828 13.7119 327.31 13.8899 325.77 13.9161C322.959 13.9639 321.672 14.2197 323.022 14.4623C323.52 14.5519 323.37 14.6892 322.543 14.9026C321.881 15.0733 321.433 15.2922 321.548 15.3891C321.839 15.6334 319.832 16.7163 319.108 16.7062C318.783 16.7016 318.942 16.5727 319.462 16.4196C319.982 16.2664 320.407 15.8493 320.407 15.4925C320.407 15.1041 320.787 14.7935 321.353 14.7187C322.206 14.6062 322.209 14.5909 321.385 14.5622C320.882 14.5448 320.321 14.6534 320.137 14.8036C319.953 14.9537 319.56 15.0765 319.263 15.0765C318.966 15.0765 318.879 14.9482 319.071 14.7915C319.526 14.4198 318.352 13.7103 317.531 13.8607C317.182 13.9248 315.401 14.0185 313.575 14.0693C310.366 14.1582 308.52 14.6185 308.52 15.3301C308.52 15.4909 308.277 15.6225 307.98 15.6225C307.683 15.6225 307.44 15.4382 307.44 15.213C307.44 14.9878 307.171 14.8036 306.842 14.8036C306.513 14.8036 306.383 14.6193 306.555 14.3941C306.972 13.8446 305.096 13.8471 304.193 14.3971C303.593 14.7623 303.432 14.7544 302.786 14.3289C302.215 13.9524 301.957 13.9246 301.597 14.2C301.25 14.4648 300.772 14.4817 299.662 14.2685C298.221 13.9917 291.318 14.0329 290.361 14.3242C290.096 14.405 288.056 14.4364 285.827 14.3944C283.598 14.3521 281.334 14.4356 280.795 14.5794C280.187 14.7419 279.571 14.7446 279.174 14.5871C278.821 14.4471 277.074 14.3774 275.291 14.4323C273.508 14.4872 270.59 14.5273 268.807 14.5218C267.024 14.5164 264.35 14.6288 262.865 14.7716C261.38 14.9144 259.921 14.9417 259.623 14.8325C259.325 14.723 258.352 14.6523 257.461 14.6755C256.569 14.6985 252.557 14.7528 248.545 14.7959C244.402 14.8407 240.936 15.0015 240.522 15.168C239.652 15.5182 236.568 15.4448 236.101 15.0626C235.891 14.8909 235.001 14.9286 233.648 15.1666C232.481 15.3722 230.918 15.4983 230.175 15.4472C225.9 15.1527 222.03 15.1811 221.489 15.5106C221.044 15.7816 220.6 15.7942 219.597 15.5632C218.707 15.3585 217.898 15.3484 217.072 15.5321C216.403 15.6806 215.127 15.7909 214.235 15.7767C213.271 15.7617 212.466 15.9187 212.247 16.1646C211.944 16.5061 211.873 16.4949 211.842 16.1002C211.806 15.6503 211.145 15.4841 209.913 15.6154C209.616 15.647 208.035 15.6735 206.401 15.6743C204.766 15.6749 203.733 15.7352 204.104 15.8084C204.476 15.8813 204.78 16.1294 204.78 16.3595C204.78 16.6811 204.436 16.7332 203.294 16.5842C202.477 16.4777 200.865 16.3524 199.711 16.306C198.558 16.2596 197.407 16.0562 197.153 15.854C196.804 15.5758 196.69 15.6129 196.683 16.006C196.675 16.5091 196.64 16.5099 195.592 16.0309C194.609 15.5815 194.239 15.5687 191.585 15.8903C189.977 16.0852 188.3 16.1744 187.858 16.0887C187.417 16.0033 186.915 16.0038 186.743 16.0906C186.572 16.1772 184.373 16.2612 181.856 16.2776C177.814 16.3038 177.146 16.3805 176.118 16.9379C175.054 17.515 174.875 17.5325 174.019 17.141C173.505 16.9057 172.927 16.7925 172.735 16.8891C172.543 16.986 172.036 16.9178 171.606 16.7376C170.996 16.4821 170.581 16.487 169.715 16.7602C168.847 17.0343 168.463 17.0384 167.951 16.7796C167.439 16.5206 167.084 16.5462 166.317 16.897C165.463 17.2871 165.337 17.2909 165.337 16.9273C165.337 16.1185 161.638 16.4384 159.706 17.4146C158.932 17.8055 158.853 17.8055 158.853 17.4162C158.853 17.1694 158.395 16.9874 157.772 16.9874C157.172 16.9874 156.692 17.1694 156.692 17.3968C156.692 17.622 156.975 17.8063 157.322 17.8063C157.669 17.8063 157.771 17.8983 157.548 18.0105C157.325 18.1229 156.822 17.9927 156.429 17.7214C155.926 17.3736 155.6 17.3218 155.325 17.5461C155.035 17.7834 154.826 17.7749 154.505 17.5126C154.23 17.2879 153.133 17.1842 151.466 17.2251C147.333 17.3272 146.721 17.3796 146.291 17.6698C146.026 17.8483 145.745 17.8363 145.48 17.6354C144.953 17.236 140.015 17.3127 138.493 17.744C137.561 18.0086 137.167 18.0072 136.602 17.7375C135.815 17.3613 133.786 17.2814 133.147 17.6016C132.922 17.714 132.16 17.8063 131.454 17.8063C130.173 17.8063 129.483 18.0173 127.489 19.018C126.608 19.4597 126.434 19.4758 126.434 19.1155C126.434 18.878 126.057 18.6105 125.595 18.5209C125.092 18.4235 124.896 18.4721 125.104 18.6421C125.294 18.798 124.564 18.6858 123.482 18.3924C121.612 17.886 121.407 17.8819 119.396 18.3105C117.444 18.7265 117.385 18.7685 118.647 18.8496C120.635 18.9774 120.265 20.0927 118.194 20.2128C116.915 20.2874 116.708 20.2019 116.708 19.5986C116.708 19.2135 116.451 18.8982 116.136 18.8982C115.822 18.8982 115.714 18.7753 115.898 18.6252C116.081 18.4751 115.974 18.3522 115.659 18.3522C115.345 18.3522 115.087 18.5234 115.087 18.7325C115.087 18.9416 114.703 19.1873 114.233 19.2784C112.996 19.5181 112.386 19.4826 112.386 19.1712C112.386 19.021 112.791 18.8982 113.286 18.8982C113.781 18.8982 114.036 18.822 113.852 18.7289C113.667 18.6359 112.897 18.638 112.141 18.7341C111.096 18.8665 110.759 19.0879 110.74 19.6541L110.716 20.3995L109.974 19.5806C109.566 19.1302 109.212 18.869 109.188 18.9997C109.164 19.1308 108.84 19.1245 108.468 18.9855C107.591 18.658 104.229 18.5141 104.331 18.8086C104.374 18.9329 104.38 19.3109 104.345 19.6489C104.274 20.3327 103.2 20.5096 103.2 19.8375C103.2 19.6022 102.939 19.4935 102.617 19.594C102.296 19.6942 101.664 19.5102 101.214 19.1848C100.474 18.652 100.331 18.637 99.7547 19.0349C99.2533 19.3814 98.8146 19.4185 97.7161 19.2075C96.5069 18.9752 96.2206 19.0289 95.6143 19.6008C94.8568 20.3163 93.4747 20.5 93.4747 19.8855C93.4747 19.3977 91.3031 19.1087 90.4197 19.4791C90.0458 19.6358 89.4887 19.6857 89.1818 19.5899C88.8463 19.4851 88.7555 19.5888 88.9544 19.8506C89.1359 20.0897 89.0727 20.2658 88.8133 20.2418C87.8035 20.1487 86.2134 20.3127 86.8558 20.4438C87.6641 20.6087 87.7554 21.5258 86.9871 21.7655C86.6877 21.8591 86.3111 21.7617 86.1496 21.5493C85.9567 21.2952 85.3602 21.2108 84.4065 21.3028C83.0293 21.436 83.0039 21.4194 83.8986 20.9673C84.9533 20.4348 84.6783 19.9317 83.4615 20.1678C83.0255 20.2521 82.6683 20.1855 82.6683 20.0193C82.6683 19.8531 82.2777 19.7171 81.8001 19.7171C81.2641 19.7171 81.0468 19.8683 81.2322 20.1127C81.4467 20.3949 81.2695 20.4593 80.6146 20.3373C80.1099 20.2434 79.5318 20.0417 79.3303 19.8891C79.0866 19.7048 78.4766 19.7237 77.5137 19.9453C76.4996 20.1787 75.8593 20.1937 75.3854 19.9947C74.4663 19.6096 73.2371 20.3026 74.0816 20.7293C74.7976 21.091 74.5096 22.2318 73.6672 22.3718C73.323 22.4289 72.8854 22.1177 72.6952 21.6801C72.2451 20.645 70.2027 20.1266 68.9892 20.7394C68.21 21.133 68.1646 21.1131 68.471 20.5123C68.7725 19.9227 68.7131 19.8929 67.9031 20.2281C67.406 20.4342 66.9992 20.7722 66.9992 20.9788C66.9992 21.1857 66.6345 21.355 66.1887 21.355C65.4598 21.355 65.1816 21.7177 65.2215 22.6167C65.2291 22.7851 64.7812 22.8629 64.2263 22.7894C63.6708 22.7163 63.217 22.5547 63.217 22.4308C63.217 22.3066 62.6956 21.7587 62.0585 21.2133C61.1816 20.4621 60.778 20.3092 60.3965 20.5835C60.0021 20.8672 59.8335 20.8715 59.619 20.6043C59.1711 20.0471 56.8483 20.1962 56.4646 20.8066C56.2766 21.1055 56.2528 21.4562 56.4117 21.5862C56.5705 21.7158 56.0999 21.7642 55.3662 21.6932C53.8954 21.5512 53.528 21.082 54.8869 21.082C56.1529 21.082 55.491 20.414 54.1245 20.3122C53.3449 20.2543 52.951 20.369 52.951 20.6534C52.951 21.1797 51.9244 21.2046 50.505 20.7127C48.4555 20.0029 44.8462 20.4419 44.8462 21.4011C44.8462 21.676 44.6031 21.9009 44.3059 21.9009C44.0087 21.9009 43.7656 21.7707 43.7656 21.6118C43.7656 21.453 43.4814 21.4115 43.1334 21.5201C42.7152 21.6509 42.612 21.5714 42.8292 21.2859C43.1745 20.8314 42.2608 20.536 40.5113 20.536C39.255 20.536 38.5397 21.073 39.4269 21.35C40.4686 21.6752 39.8321 22.5741 38.4921 22.6707C37.1727 22.7657 36.8825 23.1389 37.9572 23.3581C38.3873 23.4457 38.3133 23.5036 37.753 23.5172C36.5691 23.5461 35.4626 22.8288 35.8678 22.2951C36.0866 22.0071 36.5567 21.9211 37.2791 22.0369C38.1712 22.1802 38.3624 22.0871 38.3624 21.5097C38.3624 21.1243 38.1798 20.8128 37.9572 20.8177C37.2191 20.8336 35.6609 21.5463 35.6609 21.8682C35.6609 22.0723 35.1335 22.1248 34.175 22.0158C33.358 21.923 32.2639 21.8329 31.7436 21.8155C31.2232 21.798 30.798 21.6874 30.798 21.5695C30.798 21.4516 30.2858 21.355 29.6596 21.355C28.8696 21.355 28.6162 21.4803 28.8323 21.7644C29.0604 22.0644 28.7632 22.1739 27.7193 22.1739C26.9364 22.1739 26.4555 22.0931 26.6511 21.9943C27.206 21.7139 25.9157 21.082 24.7886 21.082C23.6453 21.082 23.4178 21.5097 24.4493 21.7202C24.821 21.7958 24.613 21.8676 23.9873 21.8794C23.1968 21.8944 22.6776 22.172 22.2864 22.7881C21.8072 23.5426 21.7148 23.5786 21.6677 23.0291C21.6224 22.4968 21.3987 22.4122 20.3969 22.5479C19.7286 22.6382 18.9986 22.7141 18.776 22.716C18.5534 22.7182 18.3707 22.8997 18.3707 23.1197C18.3707 23.7296 20.1581 24.0812 22.3469 23.9015C23.7242 23.7888 24.3142 23.8418 24.3142 24.079C24.3142 24.3099 24.9567 24.3782 26.3404 24.2938C27.4545 24.2261 29.0025 24.2608 29.7801 24.3711C31.5128 24.617 31.877 24.4931 33.2192 23.2006L34.2793 22.1799L35.0951 22.8593C35.5441 23.233 36.098 23.5388 36.3265 23.5388C36.5545 23.5388 36.7415 23.7263 36.7415 23.9553C36.7415 24.3271 36.9155 24.3263 38.3624 23.9482C39.254 23.7154 39.9834 23.3436 39.9834 23.1222C39.9834 22.9008 40.4086 22.7218 40.9289 22.7239C41.714 22.7275 41.741 22.7709 41.0889 22.9792C40.4216 23.1926 40.4124 23.3332 41.0284 23.9144L41.7529 24.5985L42.8044 24.0004C43.6208 23.536 43.7894 23.5093 43.5576 23.88C43.3215 24.2583 43.5792 24.3577 44.7971 24.3577C46.7654 24.3577 47.8806 23.7498 46.8719 23.2265C46.2802 22.9194 46.3056 22.7837 47.0221 22.4299C48.0914 21.9017 49.1687 22.0505 49.1687 22.7264C49.1687 23.0054 49.3768 23.2985 49.6313 23.378C49.8852 23.4574 49.9787 23.1883 49.8387 22.7799C49.5918 22.0595 49.6096 22.0535 50.4401 22.5834C50.9107 22.8836 51.3035 23.3441 51.3127 23.607C51.3246 23.9291 51.7596 24.0847 52.6489 24.0847C53.3746 24.0847 54.1256 24.2136 54.318 24.3711C54.8145 24.7767 56.3204 24.1003 55.9643 23.6316C55.5466 23.0818 56.1702 23.1913 57.233 23.8541C58.9539 24.9279 65.3069 24.5848 65.442 23.4107C65.4776 23.1058 65.4674 22.749 65.4204 22.618C65.3728 22.487 65.6965 22.4501 66.139 22.5359C66.7074 22.6461 66.8473 22.5648 66.6156 22.2593C66.3929 21.9662 66.5329 21.8673 67.0483 21.9533C67.9685 22.1067 68.4078 23.2658 67.5454 23.2658C67.2099 23.2658 67.084 23.3873 67.2656 23.5358C67.4606 23.6952 67.2223 23.7331 66.6831 23.6286C66.0477 23.5055 65.8478 23.5682 66.0239 23.8366C66.1752 24.0662 67.1305 24.2433 68.3943 24.2758C70.2578 24.3238 70.3972 24.2873 69.5581 23.9701C67.9064 23.3452 69.0556 21.9178 71.2207 21.905C71.6108 21.9028 71.8869 22.1157 71.8339 22.3786C71.647 23.3059 71.8831 23.4233 74.0233 23.4664C75.929 23.5046 76.1845 23.4372 76.1845 22.8965C76.1845 22.5591 75.8928 22.1357 75.5362 21.9555C75.1758 21.7734 75.1277 21.6279 75.4281 21.6279C76.3542 21.6279 77.2652 22.2561 77.2652 22.8948C77.2652 23.2314 77.5461 23.5942 77.8892 23.7012C78.2756 23.8221 78.3663 23.7763 78.127 23.5811C77.9022 23.3971 78.074 23.2658 78.5392 23.2658C78.9774 23.2658 79.4589 23.1124 79.6091 22.9246C79.8171 22.6642 79.8917 22.6688 79.9241 22.944C79.9981 23.5718 81.5202 24.1322 82.6559 23.9501C83.2449 23.8557 83.703 23.6938 83.6739 23.5904C83.6447 23.4869 83.6782 23.0952 83.7479 22.7198C83.8381 22.232 83.9451 22.1736 84.1212 22.5151C84.2574 22.7777 84.6929 22.9928 85.089 22.9928C85.5693 22.9928 85.7033 22.7886 85.492 22.3786C85.2057 21.8242 85.2559 21.8056 86.0113 22.1867C86.4716 22.4187 87.0227 22.8869 87.2367 23.2268C87.549 23.7244 87.9051 23.8153 89.0641 23.6933C89.8551 23.61 91.2993 23.5147 92.2725 23.4817C93.4206 23.4427 93.9518 23.3035 93.7859 23.0845C93.6292 22.879 93.8345 22.8066 94.3127 22.8995C94.7433 22.983 95.0956 23.1716 95.0956 23.319C95.0956 23.4801 95.9563 23.5134 97.2569 23.4023C98.525 23.2942 99.4181 23.3256 99.4181 23.4784C99.4181 23.83 103.958 23.619 104.197 23.2562C104.324 23.0638 104.632 23.0731 105.137 23.2849C106.13 23.7015 108.625 23.3717 109.556 22.7005C110.498 22.021 110.75 22.0352 112.526 22.8672C113.626 23.3824 114.007 23.4525 114.007 23.1402C114.007 22.909 114.371 22.7198 114.817 22.7198C115.263 22.7198 115.628 22.5356 115.628 22.3104C115.628 22.0852 115.871 21.9009 116.168 21.9009C116.465 21.9009 116.708 22.1818 116.708 22.5249C116.708 22.9669 117.023 23.1487 117.789 23.1487C118.383 23.1487 118.87 23.0523 118.87 22.9344C118.87 22.8165 119.113 22.7198 119.41 22.7198C119.707 22.7198 119.95 22.8978 119.95 23.1154C119.95 23.4607 120.188 23.4607 121.824 23.1154C123.975 22.6612 129.264 22.5891 130.759 22.9936C131.443 23.1784 131.884 23.1757 132.116 22.9854C132.319 22.82 134.283 22.7302 136.876 22.7676L141.29 22.8318L141.633 22.0251C141.821 21.5815 142.004 21.4202 142.039 21.667C142.107 22.1406 143.724 22.6188 143.724 22.1654C143.724 22.0199 144.089 21.9009 144.535 21.9009C144.98 21.9009 145.345 21.7781 145.345 21.6279C145.345 21.4778 145.588 21.355 145.885 21.355C146.182 21.355 146.426 21.525 146.426 21.7325C146.426 22.2127 149.258 22.5056 149.793 22.0808C150.079 21.8531 150.194 21.8654 150.2 22.1237C150.205 22.3541 150.742 22.452 151.694 22.3966C152.511 22.3491 153.139 22.1875 153.089 22.0371C152.976 21.6943 157.792 21.857 158.694 22.2266C159.053 22.3737 159.625 22.4067 159.966 22.3003C160.307 22.1935 162.384 22.1125 164.582 22.1198C168.017 22.1313 168.579 22.0669 168.579 21.6621C168.579 20.8751 169.655 20.5156 170.958 20.868C171.581 21.0364 172.152 21.1535 172.226 21.1281C172.3 21.1027 172.543 21.0839 172.766 21.0861C172.989 21.0885 172.814 21.2046 172.376 21.3443C171.939 21.4841 171.706 21.6612 171.858 21.7382C172.367 21.9948 178.959 22.119 181.788 21.9249C183.323 21.8198 185.235 21.822 186.035 21.9301C187.112 22.0756 187.49 22.0265 187.49 21.741C187.49 21.2728 187.737 21.266 189.969 21.6738C191.404 21.9359 192.037 21.9137 193.52 21.5488C195.072 21.1666 195.349 21.1601 195.499 21.5026C195.728 22.0254 198.769 22.0123 200.155 21.4827C200.834 21.2234 200.945 21.082 200.47 21.082C200.067 21.082 199.893 21.0031 200.084 20.9065C200.275 20.8101 200.809 20.8895 201.27 21.0834C201.915 21.3533 202.421 21.3637 203.445 21.1278C204.261 20.94 204.78 20.9245 204.78 21.0877C204.78 21.2349 205.144 21.355 205.59 21.355C206.036 21.355 206.401 21.4778 206.401 21.6279C206.401 21.7781 207.009 21.9009 207.751 21.9009C208.494 21.9009 209.106 21.7475 209.11 21.5597C209.116 21.3315 209.295 21.3541 209.651 21.6279C209.985 21.8848 210.334 21.9356 210.588 21.7644C211.11 21.4134 212.503 21.4126 212.998 21.7631C213.228 21.9252 213.699 21.8155 214.17 21.4906C214.603 21.1912 215.139 21.0383 215.362 21.1508C215.584 21.263 215.482 21.355 215.136 21.355C214.789 21.355 214.505 21.4778 214.505 21.6279C214.505 21.7781 214.87 21.9009 215.316 21.9009C215.762 21.9009 216.126 21.7781 216.126 21.6279C216.126 21.2319 218.156 21.2922 218.424 21.6962C218.603 21.964 218.951 21.9566 220.049 21.6612C220.867 21.4412 222.029 21.3591 222.85 21.4631C223.622 21.5611 224.765 21.5026 225.392 21.3334C226.238 21.1044 226.627 21.1052 226.909 21.3361C227.334 21.6831 229.094 21.4418 229.094 21.0367C229.094 20.8936 229.376 20.865 229.721 20.9725C230.657 21.2649 257.893 21.3536 258.578 21.0667C258.928 20.9198 259.871 20.9223 260.91 21.073C262.876 21.3577 264.214 21.1955 264.214 20.6725C264.214 20.4795 264.549 20.2565 264.958 20.1773C265.418 20.0881 265.675 20.2071 265.633 20.4894C265.576 20.874 266.237 20.9581 269.841 21.026C272.887 21.0834 274.24 21.0056 274.546 20.7552C274.888 20.4757 275.113 20.4733 275.647 20.743C276.468 21.1579 280.225 21.1928 280.717 20.7905C280.913 20.6302 281.894 20.5347 282.898 20.5783C284.207 20.6354 284.949 20.5057 285.527 20.1192C286.237 19.6453 286.335 19.6369 286.35 20.0488C286.365 20.4446 286.767 20.4951 288.959 20.3755C290.384 20.2977 292.16 20.3512 292.905 20.4943C294.478 20.7965 296.19 20.4361 295.776 19.8902C295.626 19.6928 295.925 19.3584 296.44 19.1466C297.259 18.8097 297.336 18.816 297.055 19.196C296.316 20.1937 298.326 20.5188 303.928 20.3078C304.819 20.2743 306.284 20.3218 307.182 20.4132C308.426 20.5401 309.057 20.4446 309.832 20.0119C311.03 19.3434 312.064 19.282 312.498 19.8536C312.741 20.1738 313.824 20.2631 317.462 20.2631H322.114L321.885 19.5124C321.759 19.0996 321.758 18.917 321.883 19.1067C322.148 19.5091 325.27 20.3837 325.27 20.0556C325.27 19.9339 325.696 19.8222 326.216 19.8077C327.41 19.7744 331.934 19.4914 332.294 19.4275C332.443 19.401 334.692 19.392 337.292 19.4073C340.068 19.4237 342.02 19.3243 342.02 19.1665C342.02 19.0191 343.311 18.8982 344.89 18.8982C347.031 18.8982 348.06 18.7568 348.942 18.3416C349.811 17.9327 350.125 17.8882 350.125 18.1743C350.125 18.5567 352.573 18.8952 353.821 18.6853C354.827 18.5157 354.542 18.0793 353.424 18.0793C352.862 18.0793 352.262 17.895 352.09 17.6698C351.713 17.1724 353.149 17.1056 353.558 17.6016C353.763 17.85 354.048 17.8126 354.608 17.4651C355.551 16.8795 356.609 16.8432 356.609 17.3968C356.609 17.622 356.183 17.8161 355.663 17.8278C355.143 17.8396 354.99 17.9059 355.323 17.9753C355.655 18.0443 356.916 17.9288 358.126 17.7184C359.459 17.4864 360.519 17.4342 360.82 17.5863C361.092 17.7238 361.958 17.755 362.744 17.6553C363.889 17.5101 364.186 17.3037 364.237 16.6167C364.272 16.145 364.275 15.6713 364.243 15.5641C364.212 15.4568 364.546 15.439 364.986 15.5242C365.525 15.6288 365.68 15.8922 365.463 16.3309C365.056 17.1495 366.507 17.5071 367.84 16.9172C368.919 16.44 372.278 16.1417 372.278 16.5228C372.278 16.6658 373.006 16.7089 373.899 16.6188C375.604 16.4466 375.955 16.6582 374.871 17.2057C374.367 17.4604 374.507 17.5333 375.502 17.5333C376.205 17.5333 376.62 17.6144 376.424 17.7137C376.227 17.8128 376.612 18.0334 377.279 18.2037C378.539 18.5258 379.842 18.1953 379.842 17.5527C379.842 17.3919 380.245 17.2603 380.736 17.2603C381.526 17.2603 381.511 17.3286 380.601 17.8461C379.85 18.2739 379.757 18.4647 380.257 18.5529C381.304 18.7379 382.544 19.44 382.544 19.8481C382.544 20.3439 378.334 22.4602 376.052 23.1121C375.033 23.4031 373.694 23.9166 373.076 24.2534C372.458 24.5903 371.32 24.9462 370.545 25.0445C369.772 25.1425 368.587 25.5195 367.912 25.8823C367.238 26.2448 366.242 26.5415 365.7 26.5415C365.157 26.5415 364.713 26.7258 364.713 26.951C364.713 27.1762 364.374 27.3604 363.961 27.3604C362.803 27.3604 362.481 28.1321 363.515 28.4248C364.021 28.5675 364.25 28.7774 364.024 28.8913C363.799 29.0051 363.327 28.953 362.975 28.7753C362.121 28.344 361.471 28.3669 361.471 28.8285C361.471 29.0351 361.121 29.3512 360.693 29.5309C360.265 29.7102 360.048 30.0323 360.21 30.2466C360.391 30.4844 360.168 30.6361 359.638 30.6361C358.359 30.6361 358.542 31.8858 359.923 32.5838C360.954 33.1044 361.129 33.1194 361.566 32.7249C361.961 32.3676 362.249 32.3444 363.07 32.6035C364.625 33.0937 365.976 32.4099 365.579 31.3339C365.343 30.6915 365.398 30.6069 365.818 30.9667C366.509 31.5574 370.076 32.0848 370.938 31.7234C371.28 31.5798 372.512 31.2921 373.675 31.0838C377.237 30.4461 382.68 28.4728 382.396 27.9225C382.259 27.6591 382.471 27.1483 382.867 26.7877L383.586 26.132L383.605 26.7462C383.63 27.5351 384.367 27.5272 385.617 26.7244C386.162 26.3747 386.888 26.1356 387.231 26.1935C387.575 26.2513 388.014 26.046 388.208 25.7376C388.401 25.4291 388.863 25.1766 389.232 25.1766C389.602 25.1766 390.444 24.8081 391.103 24.3577C391.763 23.9073 392.043 23.5388 391.726 23.5388C391.324 23.5388 391.32 23.3793 391.712 23.0095C392.105 22.6377 392.097 22.425 391.682 22.2956C391.323 22.1834 391.228 21.7431 391.441 21.1704C391.792 20.2243 390.836 18.6252 389.918 18.6252C389.662 18.6252 389.592 18.441 389.763 18.2157C389.934 17.9905 389.839 17.8063 389.551 17.8063C389.263 17.8063 389.027 17.5756 389.027 17.2936C389.027 16.6107 388.04 16.2915 385.982 16.3093C384.733 16.3202 384.365 16.2222 384.582 15.9359C384.81 15.6369 384.489 15.5766 383.191 15.6727C381.383 15.8067 380.274 15.18 381.58 14.7612C382.097 14.5953 382.045 14.538 381.373 14.5347C380.878 14.5325 380.35 14.3772 380.2 14.1894C380.044 13.9936 379.909 14.0616 379.885 14.3485C379.826 15.0309 378.533 14.7689 378.318 14.0316C378.224 13.7054 377.798 13.4387 377.373 13.4387C376.948 13.4387 376.6 13.193 376.6 12.8927C376.6 12.5925 376.265 12.3468 375.856 12.3468C375.447 12.3468 374.809 12.1625 374.439 11.9373C374.069 11.7121 373.317 11.5279 372.768 11.5279C372.219 11.5279 370.364 11.1943 368.647 10.7865C366.929 10.3786 364.794 10.0246 363.903 9.99974C360.996 9.91893 360.838 9.89409 361.063 9.55342C361.291 9.20811 359.211 8.52512 357.931 8.52512C357.537 8.52512 356.417 8.15661 355.441 7.7062C354.465 7.25579 353.314 6.88727 352.884 6.88727C352.453 6.88727 351.657 6.6839 351.113 6.4355C350.193 6.01511 350.125 6.01511 350.125 6.4355C350.125 7.11466 348.01 6.99919 347.493 6.29191C347.091 5.7435 347.03 5.76507 346.713 6.56489ZM348.504 6.35743C348.504 6.5163 348.747 6.57062 349.044 6.47781C349.341 6.385 349.584 6.25506 349.584 6.18873C349.584 6.12239 349.341 6.06834 349.044 6.06834C348.747 6.06834 348.504 6.19855 348.504 6.35743ZM369.135 12.406C368.747 12.6017 368.495 12.6178 368.495 12.447C368.495 12.0825 369.135 11.7596 369.495 11.942C369.649 12.0195 369.486 12.2283 369.135 12.406ZM363.369 13.3898C362.94 13.6068 362.011 13.1144 362.341 12.8447C362.565 12.6612 362.843 12.6894 363.131 12.9238C363.374 13.1234 363.482 13.333 363.369 13.3898ZM359.31 13.8481C359.31 14.0733 358.945 14.2576 358.5 14.2576C357.656 14.2576 357.428 13.9347 358.05 13.6208C358.671 13.3066 359.31 13.4218 359.31 13.8481ZM320.272 13.8924C320.644 13.9683 321.252 13.9683 321.623 13.8924C321.995 13.8168 321.691 13.7548 320.948 13.7548C320.205 13.7548 319.901 13.8168 320.272 13.8924ZM270.158 15.0765C270.158 15.2267 270.051 15.3495 269.92 15.3495C269.788 15.3495 269.531 15.2267 269.347 15.0765C269.164 14.9264 269.271 14.8036 269.586 14.8036C269.9 14.8036 270.158 14.9264 270.158 15.0765ZM349.953 15.4008C349.781 15.6184 349.653 15.5537 349.627 15.2357C349.604 14.948 349.731 14.7869 349.911 14.8775C350.09 14.9682 350.11 15.2037 349.953 15.4008ZM359.31 15.0765C359.31 15.2267 359.082 15.3495 358.802 15.3495C358.522 15.3495 358.143 15.2267 357.959 15.0765C357.776 14.9264 358.005 14.8036 358.468 14.8036C358.931 14.8036 359.31 14.9264 359.31 15.0765ZM364.173 14.9067C364.173 14.9632 363.808 15.1625 363.362 15.3495C362.698 15.6279 362.552 15.6091 362.552 15.2463C362.552 15.0028 362.917 14.8036 363.362 14.8036C363.808 14.8036 364.173 14.85 364.173 14.9067ZM286.196 15.6738C286.024 15.8914 285.896 15.8267 285.87 15.5086C285.847 15.2209 285.974 15.0599 286.153 15.1505C286.333 15.2411 286.352 15.4767 286.196 15.6738ZM304.738 16.0319C304.738 16.4441 304.43 16.7144 303.96 16.7144C302.822 16.7144 302.443 16.2528 303.425 16.0625C303.888 15.9727 304.115 15.7756 303.93 15.6244C303.745 15.4732 303.852 15.3495 304.166 15.3495C304.48 15.3495 304.738 15.6566 304.738 16.0319ZM283.126 15.8698C283.126 16.006 282.639 16.053 282.045 15.9746C281.451 15.896 280.964 15.7846 280.964 15.727C280.964 15.6697 281.451 15.6225 282.045 15.6225C282.639 15.6225 283.126 15.7339 283.126 15.8698ZM319.867 15.8955C319.867 16.0456 319.624 16.1684 319.327 16.1684C319.03 16.1684 318.786 16.0456 318.786 15.8955C318.786 15.7453 319.03 15.6225 319.327 15.6225C319.624 15.6225 319.867 15.7453 319.867 15.8955ZM359.679 16.2198C359.507 16.4373 359.379 16.3726 359.353 16.0546C359.33 15.7669 359.457 15.6058 359.636 15.6965C359.816 15.7871 359.835 16.0227 359.679 16.2198ZM314.317 16.3333C314.138 16.4239 313.672 16.4338 313.282 16.3549C312.851 16.2678 312.979 16.2031 313.609 16.19C314.178 16.1783 314.497 16.2427 314.317 16.3333ZM203.012 17.4252C202.833 17.5158 202.367 17.5257 201.977 17.4468C201.546 17.3597 201.674 17.295 202.303 17.2819C202.873 17.2702 203.192 17.3346 203.012 17.4252ZM178.304 18.0708C178.304 18.216 177.94 18.2643 177.494 18.1781C177.048 18.0915 176.683 17.9725 176.683 17.9136C176.683 17.8546 177.048 17.8063 177.494 17.8063C177.94 17.8063 178.304 17.9253 178.304 18.0708ZM292.311 18.2157C292.311 18.441 291.946 18.6252 291.5 18.6252C290.095 18.6252 290.55 18.0872 292.176 17.8278C292.25 17.8161 292.311 17.9905 292.311 18.2157ZM298.45 18.2157C298.111 18.6618 297.174 18.7789 297.174 18.3749C297.174 18.1677 297.553 18.0268 298.643 17.8278C298.708 17.8161 298.621 17.9905 298.45 18.2157ZM121.662 19.5075C121.261 19.71 121.191 19.6033 121.426 19.1493C121.617 18.7803 121.862 18.6563 121.997 18.8608C122.127 19.0579 121.976 19.3486 121.662 19.5075ZM289.416 19.0347C288.971 19.2599 288.163 19.4398 287.622 19.4346C286.832 19.4267 286.905 19.3478 287.988 19.0347C289.762 18.5226 290.43 18.5226 289.416 19.0347ZM205.477 19.4441C205.632 19.7444 205.539 19.9901 205.269 19.9901C205 19.9901 204.78 19.7444 204.78 19.4441C204.78 19.1439 204.873 18.8982 204.987 18.8982C205.101 18.8982 205.321 19.1439 205.477 19.4441ZM291.23 19.5645C291.23 19.6309 290.987 19.7608 290.69 19.8536C290.393 19.9464 290.15 19.8921 290.15 19.7332C290.15 19.5743 290.393 19.4441 290.69 19.4441C290.987 19.4441 291.23 19.4982 291.23 19.5645ZM62.4967 20.4451C61.8705 20.7615 62.1028 21.014 63.1483 21.1521C63.9269 21.2548 64.0993 21.1677 63.8961 20.7743C63.6227 20.2461 63.123 20.1288 62.4967 20.4451ZM93.0057 21.1399C93.58 21.347 93.54 21.3733 92.8268 21.2581C92.1833 21.1541 91.9985 21.228 92.2092 21.5054C92.4129 21.7737 92.1433 21.9009 91.3712 21.9009C90.0988 21.9009 89.8092 21.1322 90.8779 20.5923C91.3458 20.3559 91.6257 20.3499 91.8948 20.5699C92.0996 20.7367 92.5994 20.9933 93.0057 21.1399ZM138.307 21.0342C137.869 21.1055 137.341 21.2955 137.134 21.4562C136.615 21.8605 135.957 21.4696 136.33 20.9785C136.531 20.714 137.052 20.6338 137.869 20.7416C138.726 20.8549 138.86 20.9441 138.307 21.0342ZM176.683 21.2185C176.683 21.4437 176.588 21.6279 176.471 21.6279C176.354 21.6279 176.119 21.4437 175.947 21.2185C175.777 20.9933 175.872 20.809 176.16 20.809C176.448 20.809 176.683 20.9933 176.683 21.2185ZM16.7925 21.8327C16.8168 22.2604 16.9643 22.4073 17.135 22.1739C17.3004 21.9487 17.6754 21.611 17.9693 21.4232C18.3502 21.1797 18.2524 21.082 17.6262 21.082C17.02 21.082 16.7628 21.3135 16.7925 21.8327ZM82.6683 21.5987C82.6683 21.9056 81.263 22.1919 80.8302 21.973C80.1796 21.6446 80.5346 21.355 81.5877 21.355C82.1821 21.355 82.6683 21.4647 82.6683 21.5987ZM14.0482 21.8687C14.0482 22.0188 14.2914 22.2176 14.5885 22.3104C14.8857 22.4032 15.1288 22.3562 15.1288 22.2061C15.1288 22.056 14.8857 21.8572 14.5885 21.7644C14.2914 21.6716 14.0482 21.7186 14.0482 21.8687ZM9.3788 22.5771C8.36679 22.8397 8.3133 22.9401 8.95087 23.381C9.49497 23.7566 10.0926 23.8429 11.3029 23.7206C12.1955 23.6305 13.0735 23.6774 13.2539 23.8251C13.435 23.9728 13.7997 24.0258 14.065 23.943C14.3308 23.8601 14.0342 23.4937 13.4063 23.1288C12.7779 22.7641 12.0307 22.5386 11.7454 22.6276C11.4596 22.7168 11.0705 22.6743 10.8809 22.5334C10.6702 22.3764 10.0866 22.3934 9.3788 22.5771ZM96.7166 22.4469C96.7166 22.597 96.4588 22.7198 96.1444 22.7198C95.8299 22.7198 95.7224 22.597 95.9061 22.4469C96.0898 22.2967 96.347 22.1739 96.4783 22.1739C96.6096 22.1739 96.7166 22.2967 96.7166 22.4469ZM113.737 22.4469C113.92 22.597 113.691 22.7198 113.228 22.7198C112.765 22.7198 112.386 22.597 112.386 22.4469C112.386 22.2967 112.614 22.1739 112.894 22.1739C113.174 22.1739 113.553 22.2967 113.737 22.4469ZM0 22.5541C0 22.6131 0.377142 22.7346 0.838571 22.8241C1.31945 22.9172 1.53612 22.8713 1.34701 22.7168C1.02984 22.4572 0 22.333 0 22.5541ZM60.369 22.6117C60.1896 22.7024 59.7233 22.7122 59.3337 22.6333C58.9025 22.5462 59.0306 22.4815 59.6601 22.4684C60.2296 22.4567 60.5483 22.5211 60.369 22.6117ZM16.7925 23.152C16.8184 23.47 16.9465 23.5347 17.1188 23.3171C17.275 23.12 17.2555 22.8844 17.0761 22.7938C16.8968 22.7032 16.7692 22.8642 16.7925 23.152ZM109.96 22.9972C110.147 23.1498 110.525 23.2041 110.802 23.1176C111.551 22.8836 111.412 22.7198 110.463 22.7198C110 22.7198 109.773 22.8446 109.96 22.9972ZM34.0399 23.3862C34.0399 23.6201 34.283 23.8117 34.5802 23.8117C34.8774 23.8117 35.1205 23.6963 35.1205 23.5549C35.1205 23.4135 34.8774 23.2221 34.5802 23.1293C34.283 23.0365 34.0399 23.1522 34.0399 23.3862ZM385.515 24.0847C385.699 24.2349 385.606 24.3577 385.309 24.3577C385.012 24.3577 384.618 24.2349 384.435 24.0847C384.251 23.9346 384.344 23.8117 384.641 23.8117C384.938 23.8117 385.332 23.9346 385.515 24.0847ZM384.513 25.3128C384.431 26.0264 383.933 26.1954 383.34 25.7106C383.148 25.5539 383.285 25.2468 383.644 25.0281C384.523 24.4934 384.603 24.5196 384.513 25.3128ZM363.884 30.0492C363.58 30.2111 362.552 29.8008 362.552 29.5175C362.552 29.3701 362.892 29.408 363.308 29.6018C363.724 29.7954 363.983 29.9968 363.884 30.0492ZM362.988 31.8716C362.822 31.9557 362.52 31.8042 362.316 31.535C362.024 31.146 362.085 31.1147 362.619 31.3822C362.989 31.5675 363.154 31.7878 362.988 31.8716ZM365.107 32.1659C364.928 32.2565 364.461 32.2663 364.072 32.1874C363.641 32.1004 363.769 32.0357 364.398 32.0226C364.968 32.0108 365.287 32.0753 365.107 32.1659Z" fill="black"/>
</svg>
