<svg width="123" height="52" viewBox="0 0 123 52" fill="none" xmlns="http://www.w3.org/2000/svg">
<rect x="2" y="2" width="118.353" height="48" rx="24" stroke="black" stroke-width="4"/>
<path d="M24.572 18.396C16.564 18.396 12.756 21.588 12.756 26.712C12.756 31.668 14.996 35 24.74 35C33.364 35 35.912 33.572 35.912 33.572L33.112 29.036C33.112 29.036 29.332 30.156 24.516 30.156C20.988 30.156 19.616 29.344 19.448 28.448C34.288 28.448 32.72 28.448 36.08 28.448C36.612 20.86 31.936 18.396 24.572 18.396ZM24.6 23.436C28.436 23.436 29.472 24.5 29.472 25.592H19.448C19.448 24.78 20.288 23.436 24.6 23.436ZM47.9807 18.704C39.8887 18.704 36.6687 21.952 36.6687 26.936C36.6687 31.612 39.2447 35.168 48.1207 35.168C57.3327 35.168 60.1047 32.088 60.1047 29.036L53.6367 28.14C53.6367 28.14 53.2727 30.184 48.4007 30.184C43.7247 30.184 43.2767 28.28 43.2767 26.908C43.2767 25.536 43.7807 23.716 48.4007 23.716C53.1047 23.716 53.5807 25.844 53.5807 25.844L60.1047 24.864C60.1047 21.952 56.9967 18.704 47.9807 18.704ZM82.3399 21.98C81.1079 18.928 77.4119 18.676 74.5839 18.676C71.0839 18.676 68.6479 19.824 66.9959 21.112V15.4H60.4719V35H66.9959V25.396C68.0879 24.36 70.1039 23.66 72.8199 23.66C76.9639 23.66 76.8239 27.272 76.8239 29.68C76.8239 32.06 76.8239 35 76.8239 35H83.3199V33.74C83.3199 27.664 83.2359 24.164 82.3399 21.98ZM95.8445 18.704C89.5445 18.704 84.1685 20.216 84.1685 26.936C84.1685 33.18 88.4525 35.168 96.0125 35.168C103.404 35.168 108.08 33.236 108.08 26.936C108.08 20.02 102.228 18.704 95.8445 18.704ZM96.0685 30.576C92.6525 30.576 91.0845 29.372 91.0845 26.796C91.0845 24.052 93.9685 23.296 96.0125 23.296C98.0565 23.296 101.136 23.884 101.136 26.936C101.136 29.736 99.1765 30.576 96.0685 30.576Z" fill="black"/>
</svg>
