<svg width="499" height="29" viewBox="0 0 499 29" fill="none" xmlns="http://www.w3.org/2000/svg">
<rect x="2" y="2" width="75" height="24.1894" rx="12.0947" stroke="black" stroke-width="4"/>
<path d="M22.1497 10.1191C18.4317 10.1191 16.6637 11.6011 16.6637 13.9801C16.6637 16.2811 17.7037 17.8281 22.2277 17.8281C26.2317 17.8281 27.4147 17.1651 27.4147 17.1651L26.1147 15.0591C26.1147 15.0591 24.3597 15.5791 22.1237 15.5791C20.4857 15.5791 19.8487 15.2021 19.7707 14.7861C26.6607 14.7861 25.9327 14.7861 27.4927 14.7861C27.7397 11.2631 25.5687 10.1191 22.1497 10.1191ZM22.1627 12.4591C23.9437 12.4591 24.4247 12.9531 24.4247 13.4601H19.7707C19.7707 13.0831 20.1607 12.4591 22.1627 12.4591ZM33.018 10.2621C29.261 10.2621 27.766 11.7701 27.766 14.0841C27.766 16.2551 28.962 17.9061 33.083 17.9061C37.36 17.9061 38.647 16.4761 38.647 15.0591L35.644 14.6431C35.644 14.6431 35.475 15.5921 33.213 15.5921C31.042 15.5921 30.834 14.7081 30.834 14.0711C30.834 13.4341 31.068 12.5891 33.213 12.5891C35.397 12.5891 35.618 13.5771 35.618 13.5771L38.647 13.1221C38.647 11.7701 37.204 10.2621 33.018 10.2621ZM48.9706 11.7831C48.3986 10.3661 46.6826 10.2491 45.3696 10.2491C43.7446 10.2491 42.6136 10.7821 41.8466 11.3801V8.72812H38.8176V17.8281H41.8466V13.3691C42.3536 12.8881 43.2896 12.5631 44.5506 12.5631C46.4746 12.5631 46.4096 14.2401 46.4096 15.3581C46.4096 16.4631 46.4096 17.8281 46.4096 17.8281H49.4256V17.2431C49.4256 14.4221 49.3866 12.7971 48.9706 11.7831ZM55.2405 10.2621C52.3155 10.2621 49.8195 10.9641 49.8195 14.0841C49.8195 16.9831 51.8085 17.9061 55.3185 17.9061C58.7505 17.9061 60.9215 17.0091 60.9215 14.0841C60.9215 10.8731 58.2045 10.2621 55.2405 10.2621ZM55.3445 15.7741C53.7585 15.7741 53.0305 15.2151 53.0305 14.0191C53.0305 12.7451 54.3695 12.3941 55.3185 12.3941C56.2675 12.3941 57.6975 12.6671 57.6975 14.0841C57.6975 15.3841 56.7875 15.7741 55.3445 15.7741Z" fill="black"/>
<line x1="90.939" y1="14" x2="496.061" y2="14" stroke="black" stroke-width="4" stroke-linecap="round"/>
</svg>
