<svg width="23" height="80" viewBox="0 0 23 80" fill="none" xmlns="http://www.w3.org/2000/svg">
<path fill-rule="evenodd" clip-rule="evenodd" d="M18.6564 0.0761196C18.4854 0.274161 17.9304 0.436556 17.4224 0.436556C16.4121 0.436556 15.2387 1.7033 13.4406 4.73514C12.0998 6.9957 11.8757 7.71117 11.5427 10.7887C11.4093 12.0267 11.0689 13.0392 10.7866 13.0392C10.4817 13.0392 10.4095 13.4274 10.6081 13.9952C10.7976 14.5382 10.7154 15.0517 10.418 15.1838C10.1302 15.3117 9.82033 15.9015 9.73008 16.4945C9.63982 17.0876 9.39764 17.7677 9.19255 18.0061C8.93883 18.301 9.172 18.4108 9.92213 18.35C10.5278 18.3007 11.1361 18.4886 11.273 18.7677C11.4455 19.1184 11.2689 19.2055 10.7013 19.0493C9.79978 18.8008 9.52099 19.6783 10.3804 20.06C10.9866 20.329 9.7005 22.2644 8.76735 22.4876C7.95454 22.6824 7.7279 28.5225 8.53368 28.5225C8.82852 28.5225 8.6445 28.7457 8.12452 29.019C7.28012 29.4623 7.24302 29.6693 7.77754 30.9512C8.53719 32.7714 8.53118 32.8434 7.6246 32.8434C6.71803 32.8434 6.65535 33.2636 7.47417 33.8516C7.80511 34.0893 7.85325 34.2837 7.58148 34.2837C7.30921 34.2837 7.04847 35.271 7.00234 36.478C6.9557 37.6846 6.67791 38.879 6.38558 39.1321C6.09275 39.3853 5.85809 40.302 5.8636 41.1691C5.88917 45.1825 5.70264 47.2465 5.31404 47.2465C5.11999 47.2465 5.07887 47.5705 5.22278 47.9666C5.36719 48.3627 5.68459 48.6868 5.92828 48.6868C6.74611 48.6868 6.38107 50.1858 5.29699 51.2789C4.51176 52.0711 4.3849 52.4337 4.82465 52.6289C5.19871 52.7949 5.3 53.2579 5.09241 53.852C4.80961 54.6604 4.92143 54.808 5.81546 54.808C6.58264 54.808 6.87247 55.0338 6.87247 55.6323C6.87247 56.0852 7.26959 57.0171 7.75547 57.7027C8.42688 58.6508 8.90674 58.9216 9.76117 58.8337C10.5309 58.7548 10.8839 58.9036 10.8839 59.3068C10.8839 60.2524 14.0147 59.879 14.638 58.8589C14.9103 58.4135 15.3054 58.0487 15.5155 58.0487C15.7261 58.0487 15.8981 57.8867 15.8981 57.6887C15.8981 57.4906 16.3644 56.9937 16.9345 56.5843C17.7534 55.9963 17.8466 55.7327 17.3803 55.3291C17.0123 55.0108 16.913 54.3072 17.1166 53.4628C17.2961 52.7174 17.4936 51.7024 17.5558 51.2073C17.618 50.7122 17.8556 50.0954 18.0843 49.8365C18.7056 49.1325 18.8394 47.6134 18.3806 46.4647C18.157 45.9044 18.159 45.4461 18.3852 45.4461C18.9212 45.4461 19.3313 42.9338 18.8314 42.712C18.6213 42.6187 18.5942 42.2641 18.7718 41.9238C19.0536 41.3833 18.9879 41.3675 18.2483 41.7992C17.5197 42.2252 17.4024 42.2126 17.4024 41.7092C17.4024 41.388 17.7408 41.1252 18.1545 41.1252C18.6053 41.1252 18.9066 40.7932 18.9066 40.297C18.9066 39.8415 19.1533 39.2916 19.4547 39.0752C19.8368 38.8009 19.8463 38.4721 19.4858 37.9889C19.2015 37.6076 18.9844 36.4964 19.0034 35.5195C19.022 34.543 18.9212 33.0184 18.7803 32.1323C18.4664 30.167 18.7301 29.5887 19.8257 29.8393C20.4846 29.9902 20.5157 29.956 19.9707 29.6769C19.5389 29.4562 19.4386 29.1389 19.7029 28.8329C19.9361 28.5632 20.1341 27.4837 20.1436 26.4337C20.1577 24.8227 20.0293 24.5498 19.3203 24.6826C18.2909 24.8756 18.6394 23.992 19.7089 23.6975C20.3382 23.5239 20.3347 23.3277 19.6813 22.2046C19.0054 21.0426 19.0099 20.8223 19.728 20.0351C20.1677 19.5534 20.4224 18.7648 20.2941 18.283C20.1657 17.8009 20.2324 17.2071 20.4425 16.9633C20.6521 16.7196 20.627 16.1478 20.3858 15.6926C20.1181 15.1867 20.1386 14.7805 20.4385 14.6473C20.7077 14.5278 20.803 14.2836 20.6491 14.105C20.4956 13.9264 20.6872 13.3302 21.0753 12.7796C21.4855 12.1977 21.7161 11.0278 21.6269 9.98325C21.5211 8.74531 21.7136 7.99707 22.2461 7.5747C23.3377 6.708 23.2359 4.66313 21.9924 2.48359C21.674 1.92619 21.4067 1.35907 21.3982 1.22332C21.3661 0.721016 18.9658 -0.283596 18.6564 0.0761196ZM9.88101 32.3033C9.88101 32.6004 9.65537 32.8434 9.37958 32.8434C9.1038 32.8434 8.87816 32.6004 8.87816 32.3033C8.87816 32.0062 9.1038 31.7632 9.37958 31.7632C9.65537 31.7632 9.88101 32.0062 9.88101 32.3033ZM18.4052 39.6848C18.4052 39.8829 18.1796 40.0449 17.9038 40.0449C17.628 40.0449 17.4024 39.8829 17.4024 39.6848C17.4024 39.4868 17.628 39.3248 17.9038 39.3248C18.1796 39.3248 18.4052 39.4868 18.4052 39.6848ZM7.21494 45.1537C7.05498 45.4407 6.93615 45.3553 6.91208 44.9358C6.89052 44.5563 7.00885 44.3439 7.17532 44.4634C7.3418 44.583 7.35985 44.8937 7.21494 45.1537ZM4.86677 70.9481C2.87361 71.6337 1.86726 72.41 2.18967 73.0135C2.31102 73.24 1.83667 73.6951 1.13618 74.0246C0.133833 74.4966 -0.100331 74.8643 0.0350531 75.7548C0.129822 76.3766 0.530962 77.0626 0.925582 77.2793C1.3207 77.4957 1.55738 77.9771 1.45108 78.3491C1.28861 78.9202 1.50021 78.9998 2.81194 78.8615C4.065 78.7293 4.36535 78.8248 4.36535 79.3555C4.36535 80.3817 6.24218 80.1617 8.73977 78.8431C12.8224 76.6877 13.4506 76.2369 13.6367 75.332C13.738 74.8373 13.9761 74.0678 14.1662 73.622C14.444 72.9685 14.3161 72.8119 13.5033 72.8119C12.9487 72.8119 12.3616 72.5616 12.1981 72.2555C11.9203 71.7359 9.9482 70.9967 7.6246 70.5409C7.07304 70.4328 5.83201 70.6161 4.86677 70.9481Z" fill="black"/>
</svg>
