<svg width="282" height="104" viewBox="0 0 282 104" fill="none" xmlns="http://www.w3.org/2000/svg">
<path fill-rule="evenodd" clip-rule="evenodd" d="M109.486 16.5201C109.151 16.9898 108.828 17.091 108.386 16.8643C107.522 16.4214 104.419 18.5473 104.087 19.8095C103.898 20.5289 103.832 20.3666 103.827 19.1661L103.821 17.5603L101.945 18.2145C99.202 19.1714 98.3919 19.3662 97.8606 19.1966C97.175 18.9779 94.4083 19.7547 93.8909 20.3111C93.6024 20.6214 93.3525 20.6173 93.1642 20.2978C92.9336 19.9073 92.6077 19.9591 91.5143 20.5595C90.5852 21.0694 89.8703 21.2268 89.268 21.0545C88.5942 20.8612 88.207 21.0334 87.6351 21.781C87.0115 22.5961 86.5615 22.7684 84.9652 22.8049C83.909 22.8287 82.8574 22.9442 82.6282 23.0612C82.3989 23.1779 81.1305 23.5239 79.8095 23.8297C75.9921 24.7139 75.8811 24.7495 75.939 25.0743C75.9693 25.2441 75.3541 25.41 74.5716 25.4438C73.2999 25.4982 73.1915 25.5916 73.5488 26.3226C73.8172 26.8717 73.7447 27.1768 73.3287 27.251C72.988 27.3117 72.6605 27.0891 72.6011 26.7563C72.5292 26.3528 72.0525 26.2297 71.1711 26.3868C70.4074 26.523 69.887 26.8355 69.9389 27.1268C69.994 27.4384 69.3499 27.7734 68.2532 28.0035C66.2329 28.427 65.6543 28.9027 66.6986 29.2818C67.1829 29.4577 67.2365 29.5751 66.864 29.6461C66.5618 29.7033 66.3628 30.0227 66.4221 30.3556C66.4815 30.6884 66.2325 31.0138 65.869 31.0786C65.5054 31.1434 65.1593 30.9241 65.1 30.5913C65.0407 30.2584 65.1904 29.9507 65.4328 29.9075C65.6752 29.8643 65.8412 29.6474 65.8016 29.4255C65.6931 28.8171 64.5214 29.1542 64.3681 29.8376C64.2865 30.201 63.8096 30.4359 63.1492 30.4379C62.1467 30.4413 62.0973 30.5467 62.4977 31.8261C62.9098 33.1426 64.1687 33.8915 64.5969 33.0746C64.7052 32.8683 65.3337 32.5702 65.9931 32.4127C66.6526 32.2552 67.4369 32.0612 67.7352 31.9818C68.0338 31.9023 68.7461 31.8832 69.319 31.9388C70.0964 32.0146 70.3312 31.8774 70.2456 31.3977C70.1525 30.8752 70.3544 30.7913 71.3317 30.9476C73.1384 31.2362 74.6958 30.8537 74.5706 30.1516C74.5035 29.7752 74.8788 29.4723 75.5645 29.35C76.2084 29.2352 76.7076 29.3856 76.7657 29.7112C76.9019 30.4753 80.397 29.9022 80.5797 29.0857C80.6527 28.7605 81.244 28.4095 81.8934 28.3054C84.1432 27.9451 84.5985 27.7365 84.4879 27.1164C84.4269 26.7739 84.6302 26.4787 84.9395 26.461C85.2491 26.4429 85.9513 26.326 86.5005 26.2006C87.3557 26.0061 87.4116 25.8708 86.8905 25.259C86.3941 24.6756 86.4132 24.5657 86.9952 24.66C87.3877 24.7241 87.7536 25.0294 87.8087 25.3384C87.8638 25.6474 88.1852 25.8512 88.5228 25.791C88.8603 25.7308 89.2975 25.9309 89.4946 26.2355C90.0198 27.0493 95.2931 25.8681 96.3346 24.7034C97.1357 23.8075 98.1549 23.3881 97.8478 24.081C97.7502 24.3011 98.184 24.4794 98.8121 24.4777C99.4397 24.4757 100.033 24.2946 100.13 24.0754C100.228 23.8557 100.51 23.7479 100.759 23.8355C101.007 23.9228 101.176 23.8019 101.134 23.5671C101.092 23.3323 101.467 23.067 101.966 22.9781C102.464 22.8891 102.783 23.0197 102.673 23.2683C102.549 23.5463 103.199 23.5666 104.36 23.3212C105.62 23.0551 105.843 22.9374 105.031 22.9681C104.164 23.0008 103.857 22.8241 103.962 22.3537C104.043 21.9908 104.258 21.8234 104.439 21.9818C104.949 22.4283 106.849 22.94 107.54 22.8168C107.881 22.7559 108.933 21.7538 109.877 20.5893C111.053 19.1401 111.631 18.6806 111.711 19.1321C111.776 19.4944 111.288 20.2216 110.627 20.7474C109.274 21.8241 109.519 22.464 111.17 22.1696C111.875 22.044 112.132 21.8291 111.884 21.5736C111.606 21.2872 111.739 21.2481 112.352 21.4357C113.434 21.7672 114.806 21.1883 114.676 20.4552C114.621 20.1486 114.774 19.8619 115.017 19.8187C115.259 19.7755 115.501 19.9822 115.553 20.2779C115.704 21.1219 120.877 20.1001 120.975 19.2073C121.035 18.6533 121.079 18.6575 121.226 19.2321C121.43 20.035 122.345 19.9909 122.991 19.1463C123.327 18.7077 123.454 18.6829 123.518 19.0436C123.612 19.5713 131.348 18.1685 132.18 17.4731C132.433 17.261 132.782 17.2979 132.956 17.5547C133.196 17.9109 133.351 17.8642 133.611 17.3562C133.798 16.9902 133.83 16.5654 133.681 16.4116C133.532 16.2583 133.737 16.186 134.137 16.2508C134.537 16.3161 134.902 16.5832 134.949 16.845C135.042 17.3651 135.904 17.3336 139.241 16.6889C140.45 16.455 143.033 16.0224 144.981 15.7272C151.186 14.7869 151.564 14.7 151.653 14.1929C151.713 13.848 151.974 13.8439 152.504 14.1798C153.469 14.7912 156.2 14.3205 158.012 13.2303C159.208 12.5104 159.532 12.4526 160.353 12.8129C161.519 13.3245 162.439 13.2266 161.581 12.6827C160.744 12.1522 160.715 11.6715 161.511 11.5295C161.875 11.4647 162.221 11.684 162.28 12.0168C162.34 12.3497 162.738 12.575 163.165 12.5172C163.593 12.4598 164.545 12.3495 165.282 12.2723C166.018 12.1951 166.732 11.9121 166.868 11.6435C167.033 11.3169 167.146 11.3216 167.211 11.658C167.264 11.935 167.753 12.0788 168.298 11.9783C168.987 11.8509 169.097 11.7253 168.658 11.565C168.151 11.3802 168.137 11.2153 168.59 10.7241C169.049 10.2265 169.268 10.249 169.777 10.8459C170.151 11.2843 170.65 11.4385 171.02 11.2293C171.36 11.0371 171.916 11.0203 172.257 11.1919C173.263 11.6998 174.727 11.5037 175.402 10.771C175.812 10.327 176.061 10.246 176.113 10.5405C176.199 11.0211 177.649 10.9149 178.044 10.399C178.575 9.70539 181.742 9.17988 182.21 9.70797C182.705 10.267 184.624 10.104 187.384 9.26833C188.283 8.99622 189.633 8.82328 190.385 8.88363C191.137 8.94437 191.727 8.84763 191.695 8.6689C191.663 8.49017 192.133 8.25573 192.739 8.14769C193.345 8.03966 193.881 8.17962 193.931 8.45881C194.039 9.06521 195.784 9.24942 195.886 8.66505C195.925 8.44126 196.67 7.97332 197.542 7.62522C198.963 7.05748 199.141 7.0758 199.27 7.80202C199.398 8.51815 199.598 8.54488 201.017 8.03388C201.898 7.71646 202.491 7.62586 202.334 7.83241C201.921 8.37639 205.003 8.69108 205.546 8.16052C205.809 7.90343 206.145 7.87549 206.357 8.09303C206.555 8.29785 207.466 8.33193 208.381 8.16881C209.296 8.0057 210.211 7.97748 210.414 8.10613C210.988 8.47 215.327 7.70591 215.864 7.14687C216.209 6.78784 216.377 6.83724 216.464 7.32179C216.56 7.86121 217.002 7.9164 218.673 7.59653C219.821 7.37637 221.449 7.19489 222.289 7.19324C223.277 7.19115 223.902 6.99774 224.058 6.64606C224.243 6.22881 224.465 6.20211 225.01 6.53118C226.043 7.15503 228.184 7.54304 228.477 7.15984C228.935 6.56027 230.821 6.40886 231.167 6.9442C231.434 7.35816 231.623 7.34324 232.057 6.87296C232.606 6.27673 233.765 6.34832 233.492 6.96132C233.366 7.24566 234.62 7.07994 236.229 6.59917C236.526 6.51042 236.728 6.11727 236.677 5.72577C236.604 5.15639 236.66 5.12576 236.951 5.57289C237.152 5.88052 237.647 6.27885 238.052 6.45811C238.457 6.63737 238.692 6.99958 238.576 7.26268C238.444 7.55876 238.67 7.60762 239.168 7.39016C239.611 7.1972 240.749 7.22395 241.699 7.44936C242.648 7.6751 244.408 7.68475 245.611 7.47041C246.812 7.25614 247.824 7.23813 247.858 7.43017C247.893 7.62262 248.218 7.72693 248.582 7.6621C248.945 7.59729 249.207 7.34333 249.163 7.09763C249.119 6.85192 249.4 6.70246 249.786 6.76554C250.172 6.82821 250.457 6.70376 250.419 6.48912C250.305 5.84723 251.546 5.83189 251.958 6.46985C252.522 7.34265 252.499 7.38003 251.267 7.59971C250.19 7.79174 250.177 7.82974 251.026 8.36742C251.662 8.7702 251.945 8.78095 252.011 8.4041C252.074 8.04449 252.625 8.11648 253.733 8.62908C254.764 9.10594 255.626 9.23404 256.078 8.97855C256.502 8.73946 256.99 8.7764 257.276 9.06935C257.541 9.3418 258.111 9.50192 258.544 9.42484C258.976 9.34817 259.395 9.5079 259.475 9.77925C259.554 10.051 259.671 10.4214 259.735 10.602C260.057 11.5207 264.059 11.5832 263.896 10.667C263.847 10.3958 264.189 10.5227 264.654 10.9488C265.12 11.3753 265.421 11.904 265.324 12.1237C265.087 12.6571 266.087 13.1048 267.651 13.1658C268.409 13.1955 269.522 13.7712 270.405 14.5896C271.221 15.3454 272.134 15.927 272.433 15.8823C272.733 15.8376 273.202 16.2698 273.475 16.8435C273.747 17.4168 274.4 18.1796 274.925 18.539C275.573 18.9826 275.823 19.477 275.704 20.0793C275.607 20.567 275.699 21.6736 275.908 22.5381C276.117 23.4029 276.066 24.576 275.795 25.1455C275.523 25.7151 275.351 26.4593 275.412 26.8002C275.472 27.1407 275.315 27.4094 275.062 27.3974C274.81 27.385 274.433 27.8739 274.225 28.4833C274.017 29.0928 273.436 29.8495 272.934 30.165C272.432 30.4805 272.077 31.0497 272.145 31.4297C272.212 31.8102 272.013 32.3161 271.703 32.5546C271.391 32.7933 271.168 33.545 271.205 34.2253C271.254 35.1261 271.033 35.5164 270.392 35.6615C269.237 35.9232 267.335 37.3084 266.181 38.728C265.673 39.353 265.198 39.8335 265.126 39.7953C264.754 39.6009 260.961 42.0152 260.217 42.9191C259.957 43.2352 259.783 43.7096 259.83 43.9731C259.879 44.2474 259.537 44.4303 259.032 44.4005C258.546 44.3722 257.594 44.8008 256.917 45.3536C256.24 45.9061 255.4 46.4092 255.051 46.4714C254.702 46.5337 253.788 47.3053 253.019 48.1858C252.251 49.0666 251.249 49.7952 250.791 49.8056C250.206 49.8188 250.004 50.0728 250.11 50.6643C250.236 51.3728 250.068 51.4948 249.037 51.4437C248.025 51.3939 247.883 51.4896 248.212 51.9991C248.478 52.4109 248.38 52.6561 247.916 52.7389C247.48 52.8166 247.276 52.6207 247.367 52.2122C247.466 51.77 247.236 51.6113 246.646 51.7165C246.168 51.8016 245.805 52.0225 245.838 52.2073C245.871 52.3925 245.655 52.6186 245.359 52.7106C240.623 54.1789 238.334 55.4678 238.359 56.6532C238.376 57.4581 238.302 57.4958 237.623 57.0292C236.852 56.5009 236.831 56.5068 233.198 58.2564C232.353 58.6635 230.934 59.2161 230.045 59.4842C229.156 59.7526 228.231 60.1864 227.99 60.4479C227.749 60.7094 226.396 61.2524 224.984 61.6545C223.559 62.06 221.569 63.0029 220.515 63.7728C218.989 64.8866 218.47 65.086 217.882 64.785C217.348 64.5111 216.934 64.5685 216.347 64.9987C215.905 65.3223 214.867 65.7077 214.04 65.8552C213.213 66.0026 211.971 66.5137 211.28 66.991C210.508 67.5255 208.313 68.2427 205.57 68.8575C203.119 69.4068 200.802 70.0851 200.42 70.3651C200.038 70.6447 198.365 71.1465 196.702 71.4804C195.04 71.8142 192.925 72.4724 192.002 72.9432C191.08 73.4136 189.047 74.0604 187.484 74.3806C185.495 74.7885 184.372 75.2393 183.739 75.8849C182.954 76.6856 182.739 76.7456 182.1 76.3408C181.565 76.0016 181.091 76.0283 180.359 76.439C179.806 76.7494 178.6 77.1229 177.68 77.2691C176.76 77.4152 175.816 77.6093 175.582 77.7006C175.348 77.7922 174.527 77.9473 173.757 78.0459C172.987 78.1445 172.261 78.4425 172.143 78.7079C172.025 78.9732 171.469 79.2726 170.907 79.3728C170.345 79.473 169.691 79.8653 169.453 80.2449C169.096 80.8138 168.903 80.86 168.349 80.5092C167.516 79.9811 162.496 81.0447 161.69 81.9198C161.258 82.3886 161.04 82.4162 160.682 82.0463C160.34 81.6939 158.991 81.8128 155.339 82.5171C150 83.547 148.335 84.2335 148.51 85.3328C148.615 85.9984 148.578 86.002 148.01 85.3823C147.514 84.8409 147.342 84.8321 147.106 85.3353C146.878 85.8235 146.731 85.7898 146.421 85.1777C146.153 84.6486 145.605 84.4432 144.716 84.5385C143.995 84.6159 143.433 84.8396 143.468 85.036C143.503 85.2325 142.926 85.4354 142.185 85.4876C141.444 85.5398 140.867 85.7471 140.903 85.9484C140.996 86.4717 139.681 86.9118 138.293 86.8226C137.399 86.765 137.01 86.9572 136.722 87.598C136.511 88.0664 136.004 88.5094 135.594 88.5825C135.014 88.6859 134.947 88.5868 135.291 88.137C136.229 86.9108 135.564 86.715 132.499 87.3139C130.803 87.645 129.285 87.7824 129.127 87.6184C128.703 87.1818 126.877 88.4752 126.791 89.2732C126.732 89.824 126.682 89.8147 126.534 89.2245C126.37 88.5706 125.987 88.5686 122.955 89.2095C121.087 89.6041 119.144 90.1473 118.639 90.4161C118.097 90.7041 117.573 90.7547 117.364 90.5396C117.169 90.3384 116.726 90.3341 116.379 90.53C116.033 90.7258 115.498 90.7674 115.191 90.6223C113.581 89.8604 111.754 90.5557 111.409 92.0617C111.291 92.579 111.227 92.5675 111.098 92.0064C110.984 91.5061 110.584 91.3679 109.727 91.5331C109.063 91.6608 108.02 91.803 107.41 91.8484C106.19 91.9399 105.758 93.339 106.834 93.7175C107.161 93.8327 107.329 94.1533 107.206 94.4296C106.884 95.155 106.172 95.1829 106.046 94.4749C105.986 94.142 105.733 93.9063 105.482 93.951C105.18 94.0048 105.142 93.7156 105.37 93.0955C105.702 92.1929 105.634 92.1788 103.496 92.701C101.832 93.108 101.254 93.105 101.18 92.6898C101.101 92.2431 100.971 92.2559 100.51 92.756C100.163 93.1321 99.9091 93.2107 99.8637 92.9557C99.8198 92.7096 98.6465 92.7369 97.0334 93.0216C95.5182 93.2888 92.0532 93.8416 89.3345 94.2501C86.6155 94.6591 84.5071 95.1137 84.6497 95.2606C84.995 95.6161 83.5097 95.3806 82.0824 94.8528C81.2535 94.5469 80.7598 94.5808 80.2856 94.9763C79.921 95.2806 79.2168 95.452 78.6941 95.3641C77.313 95.1312 74.0156 95.7544 72.145 96.602C70.9122 97.1603 70.4073 97.2382 70.0965 96.9181C69.8619 96.6761 68.5645 96.6676 67.0865 96.8986C64.9343 97.2353 64.3472 97.4902 63.6595 98.3892C62.6273 99.7384 61.7915 99.9652 62.3383 98.7475C62.7993 97.7217 62.1964 97.1177 61.5518 97.9603C60.9164 98.7908 60.2239 98.8011 60.7432 97.9725C60.9857 97.5858 61.1083 97.2734 61.0159 97.2782C60.9241 97.2834 59.5766 97.4099 58.0223 97.5597C55.488 97.8038 55.0967 97.9505 54.2334 98.9845L53.2708 100.137L53.3638 98.9759C53.4652 97.7107 53.4968 97.7196 50.4291 98.1445C49.3916 98.2879 48.5727 98.5713 48.6088 98.7742C48.645 98.9771 48.3122 98.9133 47.8692 98.6322C47.4258 98.3515 46.7139 98.1841 46.2869 98.2603C45.8598 98.3364 45.3631 98.3051 45.1828 98.1911C45.0027 98.0767 44.0977 98.0707 43.1724 98.1778C38.8982 98.6709 36.1321 98.7723 35.5186 98.4584C35.0232 98.2045 34.6912 98.2882 34.2374 98.7808C33.7185 99.3438 33.518 99.352 32.9288 98.8347C32.4059 98.376 32.1985 98.3651 32.0953 98.791C31.9872 99.2357 31.8556 99.2654 31.4843 98.9295C31.2236 98.6942 30.564 98.6648 30.0185 98.8645C29.4726 99.0646 27.8537 99.0689 26.4203 98.8745C24.9873 98.6795 23.4785 98.6867 23.0681 98.8897C22.6105 99.1158 22.2825 99.0535 22.2204 98.7282C22.1453 98.3378 22.032 98.378 21.7893 98.8813C21.5075 99.466 21.3265 99.4558 20.5337 98.8116C20.0239 98.398 18.3962 97.8661 16.9158 97.6296C15.4355 97.3936 14.2033 97.0804 14.1772 96.934C14.1511 96.7875 13.4488 96.8653 12.6166 97.1073C11.2254 97.5118 11.0882 97.4614 10.914 96.4842C10.76 95.6204 10.4629 95.4203 9.32468 95.4151C8.33669 95.4105 7.50161 94.9808 6.48601 93.9542C5.69449 93.1541 5.0829 92.4298 5.12667 92.3437C5.17088 92.2576 4.88214 92.0281 4.48508 91.8337C4.08846 91.6392 3.45401 90.4602 3.07503 89.2144C2.46969 87.2218 2.48228 86.8691 3.18123 86.2853C3.61821 85.9206 3.90245 85.2118 3.81304 84.7103C3.72371 84.2092 3.83962 83.7652 4.07055 83.724C4.30148 83.6828 4.7069 82.9549 4.9708 82.1065C5.2347 81.2581 5.72607 80.5149 6.06188 80.455C6.3977 80.3952 6.63192 80.1174 6.58215 79.8382C6.5323 79.5586 6.84773 79.0324 7.28309 78.6688C7.71845 78.3052 8.01396 77.6672 7.9398 77.2512C7.86283 76.8195 8.18929 76.3272 8.70107 76.104C9.42164 75.7894 9.50564 75.5209 9.12955 74.73C8.67297 73.7707 9.16391 73.242 9.85241 73.9513C10.0418 74.1465 10.362 74.2768 10.5642 74.2407C11.112 74.1431 11.3006 72.8569 10.8365 72.3855C10.6143 72.1596 10.4324 71.6471 10.4332 71.2461C10.4337 70.8455 10.2117 70.5571 9.9398 70.6055C9.66789 70.654 9.59575 70.8488 9.7796 71.0383C9.96344 71.2278 9.63747 71.5852 9.05506 71.8331C8.47266 72.081 7.93796 72.65 7.86681 73.0977C7.79618 73.5457 7.55315 73.945 7.32707 73.9853C7.10099 74.0256 6.95531 74.2797 7.0035 74.55C7.05169 74.8203 6.6376 75.5506 6.0837 76.1726C5.52929 76.7943 4.93123 77.7502 4.75476 78.2957C4.57835 78.8417 3.84289 79.6746 3.12086 80.1468C2.39758 80.6196 1.85948 81.3175 1.92231 81.7005C1.99619 82.1506 1.78845 82.355 1.33377 82.2812C0.518889 82.1484 0.53543 82.6238 1.39098 83.959C1.89598 84.7461 1.86242 85.0118 1.19796 85.4983C0.756358 85.8218 0.548916 86.2447 0.737221 86.4388C0.925453 86.6325 0.876049 87.1155 0.627526 87.5119C0.291582 88.0481 0.331946 88.3918 0.786158 88.8557C1.16015 89.237 1.28337 89.7266 1.10481 90.1177C0.707091 90.9883 1.09026 92.9972 1.63541 92.9C1.8778 92.8568 2.18103 93.3181 2.30874 93.9247C2.43644 94.5313 2.60097 94.7834 2.67356 94.4841C2.84563 93.7786 3.5036 93.6613 3.55762 94.3265C3.62786 95.1923 5.78324 97.5721 6.39802 97.4625C6.71666 97.4057 7.02309 97.6146 7.07869 97.9264C7.1422 98.2827 7.47434 98.3654 7.97009 98.1492C8.51098 97.9134 9.13473 98.1423 9.94947 98.8762C10.6034 99.4656 11.522 99.8792 11.99 99.7958C12.4585 99.7122 12.89 99.9163 12.9494 100.249C13.0087 100.582 13.3547 100.801 13.7183 100.736C14.0819 100.672 14.4145 100.815 14.4573 101.056C14.5001 101.296 14.7685 101.365 15.0531 101.209C15.3382 101.054 15.4887 100.737 15.3878 100.506C15.287 100.274 15.5184 100.136 15.9015 100.199C16.2845 100.261 16.6397 100.544 16.6903 100.828C16.7801 101.332 19.5322 102.198 20.4965 102.026C20.7631 101.978 21.0083 102.093 21.0418 102.281C21.0754 102.469 21.7204 102.53 22.4758 102.415C23.2307 102.301 24.254 102.437 24.7497 102.718C25.3546 103.061 26.0144 103.074 26.757 102.758C27.4063 102.482 27.8938 102.457 27.9366 102.697C27.9767 102.922 28.3892 102.94 28.8534 102.738C29.8055 102.322 29.8747 101.777 28.9949 101.619C28.6722 101.561 28.8516 101.419 29.3936 101.305C29.9637 101.184 30.422 101.335 30.4804 101.662C30.6005 102.336 33.2261 102.859 34.6057 102.484C35.1422 102.338 35.6116 102.388 35.6485 102.594C35.7597 103.218 37.2034 103.257 37.7624 102.65C38.1674 102.211 38.3105 102.223 38.3965 102.705C38.4804 103.175 39.1903 103.263 41.3022 103.063C42.8396 102.917 44.6586 102.678 45.3454 102.531C46.4702 102.291 46.5496 102.157 46.1479 101.184C45.8343 100.425 45.8906 99.9985 46.3379 99.7456C47.303 99.2006 47.4504 99.2417 47.279 100.007C47.1579 100.547 47.318 100.624 47.9715 100.339C49.055 99.8661 49.143 100.309 48.153 101.249C47.4465 101.921 47.4518 102.025 48.2176 102.565C48.8043 102.98 49.248 103.007 49.7243 102.659C50.1067 102.378 50.6927 102.268 51.0774 102.403C51.4505 102.534 51.8833 102.537 52.0386 102.408C52.1943 102.279 52.9186 102.271 53.6488 102.39C54.3789 102.509 55.9821 102.511 57.2118 102.395C58.4415 102.278 59.8383 102.221 60.3155 102.269C60.8806 102.324 61.0507 102.217 60.8023 101.961C60.2307 101.372 61.1475 101.345 61.9032 101.928C62.8304 102.645 63.3592 102.444 63.1806 101.442C63.0689 100.815 63.1949 100.665 63.649 100.881C63.9909 101.044 64.9504 101.261 65.7812 101.363C67.1991 101.538 67.2817 101.491 67.1244 100.608C67.0173 100.007 67.2609 99.535 67.7992 99.3C68.462 99.0108 68.5843 99.0793 68.3727 99.6216C67.9012 100.828 69.6768 101.537 72.0743 101.1C73.2386 100.887 75.0667 100.74 76.1369 100.772C77.2729 100.806 78.1571 100.662 78.2618 100.425C78.3604 100.203 78.231 100.058 77.9745 100.104C77.718 100.15 77.4825 100.046 77.4516 99.872C77.3627 99.3738 79.7283 98.1986 80.3672 98.4235C80.7457 98.5567 80.6064 98.7805 79.9627 99.0747L78.9808 99.5228L80.1215 100.116C81.57 100.87 87.8158 99.9046 88.0428 98.8925C88.2239 98.0847 88.9379 97.9857 89.074 98.7495C89.1403 99.1215 89.5949 99.281 90.2542 99.1635C91.1563 99.0027 91.2869 98.7841 91.0772 97.7887C90.8952 96.9237 90.5833 96.6151 89.9188 96.6424C89.1261 96.6746 89.0833 96.6002 89.5861 96.0589C90.0736 95.5337 90.3768 95.699 91.5583 97.136L92.9541 98.8337L92.9931 97.6062C93.0146 96.9309 92.807 96.0063 92.5326 95.5511C92.1454 94.91 92.1867 94.7486 92.7154 94.8346C93.0905 94.8955 93.4378 95.1525 93.4865 95.4056C93.5397 95.6809 93.6902 95.6145 93.8614 95.2409C94.2632 94.3622 95.2921 94.8385 95.1347 95.8307C95.0634 96.2822 95.2029 96.6161 95.4453 96.5729C95.6877 96.5297 96.0768 96.835 96.3097 97.2513C96.5427 97.6677 97.0172 97.9578 97.3645 97.8958C97.7118 97.8339 98.0284 97.9648 98.068 98.1867C98.1639 98.7245 99.7558 98.4157 100.79 97.6586C101.427 97.1925 101.729 97.1627 102.094 97.5301C102.463 97.9018 102.543 97.851 102.45 97.3013C102.308 96.4583 103.486 96.1605 104.598 96.7582C105.035 96.9925 106.155 97.1559 107.086 97.1209C108.407 97.0711 108.756 96.9235 108.672 96.4503C108.563 95.8415 109.653 95.7583 111.339 96.2457C111.721 96.3562 112.455 96.2099 112.971 95.9203C113.533 95.6048 114.04 95.531 114.239 95.7358C114.725 96.2365 117.513 95.6407 117.625 95.0122C117.694 94.6244 117.914 94.5627 118.419 94.7899C118.803 94.9637 120.265 94.9479 121.667 94.7553C123.923 94.4452 124.319 94.2609 125.099 93.1574L125.98 91.91L126.291 92.8171C126.583 93.6692 126.774 93.6879 129.45 93.1258C131.017 92.7969 132.494 92.4737 132.733 92.407C132.971 92.3408 135.896 91.9293 139.233 91.4917C144.925 90.7458 145.305 90.6481 145.377 89.9055C145.445 89.2069 145.475 89.1957 145.631 89.8111C145.789 90.4328 146.326 90.6001 147.231 90.3097C147.886 90.0993 160.555 87.3736 161.701 87.1962C162.37 87.0928 162.888 86.8382 162.851 86.6304C162.81 86.402 163.214 86.3221 163.876 86.4281C164.476 86.5241 165.204 86.4068 165.494 86.1675C165.785 85.9261 166.383 85.862 166.835 86.0236C167.343 86.2046 168.281 86.0752 169.316 85.6813C170.232 85.3328 171.168 85.0555 171.397 85.0651C171.626 85.0751 171.917 84.8479 172.045 84.5608C172.22 84.1662 172.529 84.1106 173.306 84.3331C173.872 84.4952 174.497 84.4936 174.696 84.3297C174.894 84.1656 176.282 83.7213 177.781 83.3429C179.28 82.9641 180.6 82.4415 180.716 82.1811C180.831 81.9208 181.305 81.6468 181.77 81.5727C182.933 81.3866 184.232 81.153 185.145 80.966C185.567 80.8795 185.866 80.5477 185.809 80.2286C185.752 79.9095 186.003 79.5954 186.367 79.5306C186.73 79.4657 187.06 79.5943 187.1 79.8162C187.139 80.0381 187.457 80.1688 187.805 80.1067C188.256 80.0263 188.348 79.5233 188.123 78.3649C187.949 77.4689 187.91 76.6018 188.035 76.4379C188.161 76.2739 188.348 76.6152 188.452 77.1965C188.662 78.377 189.849 80.1586 190.363 80.0669C191.189 79.9197 191.996 79.2218 191.908 78.7308C191.746 77.8222 192.685 77.4025 193.426 78.0527C194.257 78.7817 195.679 78.1875 195.132 77.3401C194.922 77.0146 195.022 76.7387 195.372 76.6762C195.703 76.6173 196.135 76.8212 196.334 77.1291C196.533 77.4371 197.145 77.5874 197.693 77.463C198.433 77.2953 198.483 77.2248 197.886 77.1901C196.952 77.1355 196.674 76.4441 197.525 76.2924C197.843 76.2358 198.532 76.3784 199.058 76.609C199.733 76.9053 200.155 76.8763 200.492 76.5107C200.828 76.1461 200.994 76.1323 201.053 76.4639C201.109 76.7766 201.604 76.7667 202.526 76.4345C204.009 75.9 204.513 75.7268 208.846 74.2649C210.379 73.7472 212.001 73.0864 212.449 72.7954C212.897 72.5049 213.763 72.1977 214.374 72.1131C215.96 71.8936 218.842 70.8244 219.257 70.3016C219.451 70.0573 219.986 69.7904 220.445 69.7084C220.905 69.6266 221.747 69.1268 222.316 68.5973C223.022 67.942 223.651 67.6879 224.29 67.7999C225.775 68.0602 226.345 67.8783 225.952 67.2697C225.723 66.9151 225.85 66.6635 226.298 66.5836C226.688 66.5141 227.039 66.6389 227.079 66.8608C227.118 67.0827 227.448 67.2112 227.812 67.1463C228.593 67.0071 228.592 66.9614 227.796 65.7192C227.397 65.0965 227.332 64.7342 227.611 64.6844C227.848 64.6423 228.09 64.8801 228.149 65.213C228.208 65.5458 228.637 65.7504 229.102 65.6675C229.566 65.5847 230.044 65.6811 230.163 65.8817C230.29 66.0955 231.171 65.8199 232.288 65.2164C233.733 64.4364 234.267 63.8654 234.484 62.8705L234.771 61.5556L235.598 62.3126C236.385 63.0335 236.507 63.0264 238.122 62.1673C239.055 61.6708 239.983 61.3224 240.183 61.3929C240.382 61.463 240.381 61.1094 240.178 60.6068C239.818 59.7091 240.611 58.4737 241.056 59.2407C241.181 59.4557 241.598 59.9076 241.982 60.2453C242.6 60.7871 242.874 60.7652 244.32 60.0592C245.221 59.6191 246.737 58.7623 247.689 58.1547C248.641 57.5471 249.723 56.9957 250.094 56.9296C250.465 56.8634 251.473 56.2154 252.334 55.4895C253.195 54.7636 254.187 54.1185 254.538 54.0559C254.889 53.9934 255.398 53.6682 255.669 53.3339C255.94 52.9997 256.818 52.5583 257.621 52.3539C258.425 52.1491 259.453 51.6381 259.908 51.2179C260.361 50.7977 261.086 50.3909 261.517 50.3141C261.947 50.2373 262.251 49.9021 262.192 49.5693C262.131 49.23 262.477 48.894 262.979 48.8045C263.472 48.7167 263.94 48.3522 264.02 47.9945C264.1 47.6368 264.645 47.2586 265.232 47.1541C265.963 47.0237 266.372 46.624 266.536 45.8808C266.77 44.8209 267.608 44.2407 267.75 45.0399C267.857 45.6366 268.688 45.3782 269.32 44.552C269.624 44.1543 270.208 43.7692 270.618 43.6961C271.029 43.6229 271.489 43.1345 271.643 42.6109C271.796 42.0869 272.282 41.3917 272.723 41.0655C273.163 40.7394 273.888 39.986 274.335 39.3911C274.781 38.7965 275.303 38.2739 275.495 38.2301C275.687 38.1859 276.238 37.4916 276.719 36.6864C277.201 35.8812 278.057 34.6491 278.622 33.9489C279.992 32.2499 281.724 27.0547 280.614 27.9732C279.813 28.6369 279.786 26.6739 280.566 24.4725C281.036 23.1479 281.246 21.9865 281.033 21.8918C280.819 21.7967 280.42 20.4632 280.146 18.9286C279.812 17.0579 279.456 16.1147 279.068 16.0678C278.748 16.0294 278.445 15.7604 278.394 15.4699C278.342 15.1791 278.003 14.8931 277.641 14.8344C277.279 14.7753 276.751 14.1959 276.467 13.5468C276.183 12.8976 275.75 12.2955 275.504 12.2087C275.257 12.1223 274.978 11.6547 274.882 11.1701C274.787 10.6855 274.188 9.90609 273.55 9.43816C271.964 8.27269 268.672 6.85232 268.765 7.37278C268.807 7.60598 268.543 7.84984 268.18 7.91467C267.816 7.97948 267.491 7.88002 267.458 7.69402C267.425 7.50763 266.865 7.23654 266.214 7.09201C265.563 6.94708 264.968 6.50822 264.892 6.11595C264.751 5.38766 261.997 4.43782 260.698 4.66945C260.311 4.73851 259.655 4.52744 259.24 4.20084C258.723 3.79233 258.445 3.76854 258.353 4.12511C258.261 4.47613 257.883 4.43115 257.18 3.98573C256.46 3.52894 255.831 3.46079 255.122 3.76193C254.551 4.00541 254.071 4.01768 254.03 3.79014C253.913 3.1317 250.462 2.06767 248.497 2.08375C247.498 2.09199 246.45 1.98118 246.168 1.83788C245.132 1.3107 240.317 0.942059 237.032 1.13888C236.003 1.20068 234.49 1.21241 233.668 1.16529C232.657 1.10745 232.201 1.22215 232.254 1.52111C232.297 1.76358 231.819 1.66444 231.192 1.30008C230.475 0.884517 229.217 0.710146 227.811 0.831228C226.58 0.937153 224.544 0.997409 223.288 0.964546C222.032 0.932088 219.843 1.03928 218.423 1.20246C217.004 1.36604 215.571 1.36784 215.241 1.20658C214.91 1.04532 213.248 1.14432 211.548 1.42624C208.501 1.93151 207.764 1.97766 206.376 1.75166C205.116 1.5464 200.983 2.10748 201.049 2.47502C201.084 2.67231 200.715 2.71945 200.228 2.5798C199.619 2.40523 199.21 2.49935 198.917 2.88208C198.596 3.30192 198.468 3.30027 198.392 2.87665C198.319 2.46795 198.175 2.53113 197.861 3.10871C197.375 4.00379 195.588 4.24539 194.876 3.51259C194.572 3.19851 193.978 3.20953 193.078 3.5455C192.165 3.88655 191.804 3.89044 191.952 3.55686C192.089 3.24951 191.826 3.31843 191.248 3.74151C190.485 4.30006 190.221 4.32383 189.716 3.8803C189.168 3.39933 189.066 3.42296 188.724 4.10828C188.371 4.81685 188.332 4.82135 188.191 4.17119C188.108 3.78566 187.987 3.46211 187.923 3.4527C187.859 3.4437 185.821 3.70712 183.395 4.03846C180.969 4.36949 178.708 4.4994 178.371 4.32715C177.952 4.11219 177.687 4.17569 177.531 4.52778C177.382 4.8632 176.727 5.03994 175.648 5.0354C172.83 5.02324 171.1 5.37379 171.2 5.93661C171.251 6.22185 171.094 6.49081 170.852 6.53403C170.61 6.57724 170.425 6.39957 170.44 6.13907C170.457 5.87848 169.965 5.70471 169.348 5.75263C168.732 5.80055 167.758 5.78851 167.184 5.72561C166.394 5.63953 166.169 5.77046 166.257 6.26389C166.321 6.62296 166.604 6.87503 166.887 6.82458C167.17 6.77422 167.277 6.89533 167.125 7.09353C166.973 7.29212 166.544 7.18676 166.171 6.85938C165.25 6.05038 163.185 6.35035 161.542 7.5315C160.474 8.2993 160.061 8.42001 159.597 8.0985C159.152 7.79102 159.156 7.73678 159.61 7.87724C159.979 7.99168 160.168 7.82099 160.099 7.43488C160.038 7.08912 159.734 6.85108 159.424 6.90624C158.739 7.02841 157.081 8.45805 156.479 9.4449C156.097 10.0725 156.018 10.0478 155.877 9.25545C155.747 8.52762 155.546 8.42735 154.879 8.75738C154.283 9.0517 154.01 8.98714 153.929 8.53205C153.846 8.06444 153.434 7.98207 152.396 8.22458C151.616 8.40743 150.682 8.75742 150.321 9.00293C149.96 9.24836 149.525 9.3609 149.354 9.25271C149.184 9.14412 147.215 9.32813 144.981 9.66117C141.908 10.1195 140.693 10.4627 139.996 11.0702C139.222 11.7443 139.02 11.7899 138.739 11.3543C138.386 10.8089 136.748 10.9944 135.929 11.6725C135.664 11.8917 135.566 12.1938 135.711 12.3436C135.857 12.4933 135.768 13.0186 135.514 13.5102C135.12 14.2731 133.698 14.7822 132.287 14.6659C131.897 14.6338 134.076 13.3711 134.501 13.3831C134.721 13.389 134.724 13.1216 134.509 12.7882C134.294 12.4552 134.088 12.0145 134.051 11.8095C134.013 11.5929 132.57 11.791 130.611 12.2817C126.632 13.2783 126.704 13.2663 125.092 13.2037C124.128 13.1661 123.859 13.3023 123.945 13.7829C124.044 14.3396 123.907 14.3699 122.741 14.0485C120.941 13.552 117.652 14.1912 116.494 15.2627C115.827 15.8799 115.478 16.0025 115.293 15.6849C114.912 15.0273 112.647 15.5538 112.1 16.427C111.672 17.1103 111.553 17.1184 110.794 16.5166C110.085 15.9541 109.889 15.9545 109.486 16.5201ZM115.359 16.6356C115.418 16.9685 115.272 17.2988 115.035 17.3698C114.798 17.4409 114.402 17.558 114.156 17.6307C113.909 17.7034 113.568 18.0684 113.398 18.4422C112.958 19.4061 112.788 18.3262 113.202 17.2008C113.575 16.186 115.203 15.7597 115.359 16.6356ZM92.141 21.583C92.1585 21.681 91.9944 21.9084 91.7765 22.0888C91.5585 22.2692 91.3459 22.2243 91.304 21.9895C91.2622 21.7546 91.4262 21.5268 91.6686 21.4836C91.911 21.4404 92.1235 21.4849 92.141 21.583ZM79.5543 26.1115C79.2355 26.8306 78.4442 26.4322 78.6211 25.6418C78.7187 25.2069 78.945 25.0866 79.2731 25.2945C79.5494 25.4696 79.6759 25.8371 79.5543 26.1115ZM187.185 6.32794C187.244 6.66079 187.001 6.98506 186.645 7.04854C186.251 7.11878 186.055 6.90978 186.144 6.51352C186.224 6.15577 186.467 5.8315 186.683 5.79292C186.9 5.75434 187.126 5.99509 187.185 6.32794ZM191.727 5.20602C191.537 5.41169 191.266 5.78767 191.125 6.04178C190.978 6.30562 190.811 6.2014 190.735 5.79906C190.662 5.40713 190.929 5.03605 191.337 4.96322C191.741 4.89125 191.916 5.00026 191.727 5.20602ZM77.5568 26.4972C77.5964 26.7191 77.4304 26.936 77.188 26.9792C76.9456 27.0224 76.715 26.8762 76.6754 26.6543C76.6358 26.4324 76.8018 26.2155 77.0442 26.1723C77.2866 26.1291 77.5173 26.2753 77.5568 26.4972ZM91.5115 23.8444C91.3891 24.0045 91.0113 24.0868 90.6728 24.0269C90.2982 23.9609 90.3856 23.8466 90.8955 23.7357C91.357 23.6356 91.634 23.6844 91.5115 23.8444ZM198.829 5.3244C198.863 5.51524 198.574 5.62032 198.188 5.55765C197.802 5.49457 197.458 5.28657 197.424 5.09534C197.39 4.9045 197.678 4.79942 198.064 4.86209C198.45 4.92517 198.794 5.13317 198.829 5.3244ZM208.006 3.24031C208.046 3.46221 207.73 3.70285 207.306 3.77521C206.645 3.8875 206.619 3.83224 207.125 3.39745C207.868 2.75697 207.918 2.74809 208.006 3.24031ZM69.5476 28.7576C69.737 28.9528 69.6817 29.15 69.4252 29.1957C69.1687 29.2415 68.9261 29.0974 68.8865 28.8755C68.847 28.6536 68.9019 28.4565 69.009 28.4374C69.116 28.4183 69.3582 28.5625 69.5476 28.7576ZM184.792 8.21145C184.832 8.43335 184.654 8.65238 184.398 8.69811C184.141 8.74384 184.021 8.57792 184.131 8.32931C184.242 8.08069 184.419 7.86174 184.526 7.84265C184.633 7.82356 184.753 7.98955 184.792 8.21145ZM195.966 7.23717C196.446 7.60794 196.496 7.78998 196.138 7.85386C195.858 7.90375 195.467 7.69255 195.268 7.38452C195.069 7.07658 194.63 6.87386 194.292 6.93405C193.955 6.99423 193.645 6.85549 193.604 6.62592C193.511 6.10345 194.996 6.48761 195.966 7.23717ZM190.005 7.53359C189.882 7.69362 189.505 7.77595 189.166 7.716C188.792 7.65 188.879 7.53576 189.389 7.42486C189.85 7.32469 190.127 7.37355 190.005 7.53359ZM61.0708 31.7954C60.5902 32.4231 61.0285 33.1904 61.7868 33.049C62.3958 32.9354 62.4168 32.8542 61.8868 32.6611C61.5182 32.527 61.3169 32.1911 61.4395 31.9149C61.6847 31.3621 61.4584 31.2888 61.0708 31.7954ZM206.743 7.0472C206.62 7.20723 206.242 7.28957 205.904 7.22962C205.529 7.16362 205.617 7.04937 206.127 6.93847C206.588 6.83831 206.865 6.88717 206.743 7.0472ZM208.285 7.35342C208.324 7.57532 208.158 7.79223 207.916 7.83544C207.673 7.87866 207.443 7.73246 207.403 7.51056C207.364 7.28866 207.53 7.07175 207.772 7.02854C208.014 6.98532 208.245 7.13152 208.285 7.35342ZM213.168 6.69087C213.228 7.02372 213.078 7.33141 212.836 7.37462C212.593 7.41784 212.346 7.18086 212.287 6.84801C212.228 6.51516 212.377 6.20748 212.62 6.16426C212.862 6.12105 213.109 6.35802 213.168 6.69087ZM225.656 5.32161C225.718 5.66737 225.55 5.87379 225.283 5.77983C225.016 5.68587 224.768 5.43841 224.73 5.22942C224.693 5.02043 224.861 4.81441 225.103 4.77119C225.346 4.72798 225.595 4.97585 225.656 5.32161ZM242.605 6.02179C242.665 6.35464 242.416 6.68 242.052 6.74482C241.689 6.80964 241.343 6.59034 241.283 6.2575C241.224 5.92465 241.473 5.59928 241.837 5.53446C242.2 5.46964 242.546 5.68894 242.605 6.02179ZM258.511 6.8286C258.438 7.12794 258.298 6.91863 258.199 6.36388C258.1 5.80913 258.159 5.56455 258.331 5.81996C258.503 6.0757 258.584 6.52958 258.511 6.8286ZM51.7115 48.5886C51.6013 48.8372 51.7213 49.0032 51.9778 48.9574C52.2343 48.9117 52.4122 48.6927 52.3726 48.4708C52.333 48.2489 52.2134 48.0829 52.1063 48.102C51.9992 48.1211 51.8218 48.34 51.7115 48.5886ZM46.1194 51.2507C46.2183 51.8055 46.3588 52.0148 46.4314 51.7154C46.5045 51.4164 46.4236 50.9625 46.2516 50.7068C46.0801 50.4514 46.0205 50.696 46.1194 51.2507ZM36.9642 53.3883C36.3896 54.1393 36.5154 54.7479 37.1722 54.3919C37.4575 54.2374 38.0725 54.3176 38.5395 54.5702C39.0066 54.8233 39.5779 54.873 39.8098 54.6814C40.3744 54.214 40.2239 53.5506 39.5795 53.6655C39.2957 53.7161 38.6892 53.5457 38.2325 53.2871C37.5916 52.9238 37.3016 52.9472 36.9642 53.3883ZM31.352 56.2138C31.2307 56.3724 31.2829 56.7365 31.4682 57.0236C31.7383 57.4421 31.4057 57.5659 29.7895 57.6492C28.5063 57.7156 27.6928 57.9373 27.55 58.2587C27.4268 58.5367 27.5361 58.7266 27.7926 58.6809C28.0491 58.6351 28.3362 59.0289 28.4302 59.5558C28.5645 60.3091 28.8368 60.472 29.7028 60.3176C30.4788 60.1793 30.7654 59.9017 30.6722 59.3788C30.5265 58.5619 31.6193 57.5882 32.5365 57.7181C32.9265 57.7735 32.9801 57.5845 32.6986 57.1485C32.411 56.7035 32.4577 56.5595 32.8448 56.6957C33.1573 56.8057 33.3817 56.7228 33.344 56.5114C33.3063 56.3 32.9421 56.0731 32.5346 56.0067C31.6256 55.8587 31.623 55.8591 31.352 56.2138ZM34.2667 56.5863C34.3994 57.3302 35.2577 57.4315 36.0049 56.7917C36.5642 56.3124 36.5665 56.2612 36.0167 56.5261C35.6415 56.7071 35.0761 56.6909 34.7598 56.4904C34.3349 56.2211 34.2061 56.2461 34.2667 56.5863ZM25.026 59.5904C24.9157 59.839 25.0358 60.0049 25.2922 59.9592C25.5487 59.9135 25.8048 60.1334 25.8609 60.4477C26.0085 61.276 27.0599 61.2813 27.512 60.4559C27.804 59.9231 27.7345 59.6453 27.2291 59.3254C26.4339 58.8211 25.3068 58.9567 25.026 59.5904ZM22.2446 61.2056C21.8383 61.383 21.5647 61.8555 21.6361 62.2557C21.7074 62.656 21.4758 63.2925 21.1211 63.6701C20.5596 64.2672 20.4961 64.2627 20.6314 63.6346C20.7235 63.2048 20.5144 62.8686 20.1135 62.8032C19.7436 62.743 19.472 62.8697 19.5102 63.0843C19.5486 63.2994 19.2824 63.5283 18.9189 63.5931C18.5553 63.6579 18.2892 63.8869 18.3275 64.1019C18.3658 64.3166 18.1026 64.4447 17.742 64.3857C16.6958 64.2155 16.7007 64.9573 17.7511 65.6433C18.6008 66.1987 18.7004 66.1934 18.5941 65.5971C18.5278 65.2255 18.7711 64.8683 19.1346 64.8035C19.4982 64.7387 19.8465 64.9705 19.9086 65.319C20.0975 66.3785 21.9042 65.5044 22.0473 64.2842C22.1258 63.6154 22.2354 63.4801 22.3419 63.9195C22.5318 64.699 23.2249 64.7328 23.5593 63.9784C23.6789 63.7082 24.1637 63.5098 24.6365 63.5374C25.3386 63.5784 25.3958 63.4708 24.9506 62.9478C24.651 62.5961 24.5067 62.1765 24.6298 62.0155C24.875 61.6945 23.6831 60.6328 23.2514 60.7876C23.1035 60.8406 22.651 61.0287 22.2446 61.2056ZM25.2372 62.0504C24.7318 62.4852 24.758 62.5404 25.4182 62.4282C25.8432 62.3557 26.1582 62.1151 26.1186 61.8932C26.0308 61.401 25.981 61.4099 25.2372 62.0504ZM14.2298 67.1228C12.1999 68.8672 12.0232 69.2534 13.2306 69.3074C13.6715 69.3271 13.3753 69.3845 12.5713 69.435C11.0585 69.5298 10.6707 70.1905 12.0002 70.4068C12.4797 70.4849 12.7245 70.838 12.6698 71.3727C12.6224 71.8361 12.7634 72.1835 12.9834 72.1443C13.2028 72.1052 13.3179 71.71 13.2388 71.2662C13.082 70.3867 13.3872 70.2191 14.4443 70.6034C15.2407 70.8931 16.6332 69.9014 16.4976 69.1413C16.446 68.8516 16.747 68.683 17.221 68.7355C17.8755 68.8078 17.8961 68.7675 17.3267 68.5272C16.7509 68.2839 16.7038 68.0967 17.0713 67.5104C17.4371 66.9273 17.3863 66.6729 16.8018 66.1618C16.1171 65.5629 15.99 65.6101 14.2298 67.1228ZM6.83026 77.4041C7.02244 77.6021 6.72408 77.8364 6.15588 77.9344C5.33611 78.0751 5.25267 78.01 5.72849 77.6005C6.46219 76.9693 6.41636 76.9775 6.83026 77.4041ZM266.073 42.0087C266.263 42.2039 266.097 42.4208 265.704 42.4908C265.312 42.5607 265.081 42.4145 265.192 42.1659C265.302 41.9173 265.468 41.7003 265.56 41.6838C265.653 41.6673 265.884 41.8135 266.073 42.0087ZM259.271 47.6102C259.189 47.9784 259.011 48.2098 258.877 48.1247C258.742 48.0396 258.729 47.7527 258.846 47.4878C259.166 46.7664 259.442 46.8462 259.271 47.6102ZM258.381 50.2667C258.298 50.6348 258.121 50.8663 257.986 50.7811C257.852 50.696 257.838 50.4092 257.956 50.1442C258.276 49.4229 258.552 49.5027 258.381 50.2667ZM248.341 53.4956C248.381 53.7175 248.203 53.9366 247.946 53.9823C247.69 54.028 247.57 53.8621 247.68 53.6135C247.79 53.3649 247.968 53.1459 248.075 53.1268C248.182 53.1077 248.301 53.2737 248.341 53.4956ZM249.883 53.2206C250.073 53.4158 249.918 53.6307 249.541 53.698C249.163 53.7654 248.821 53.639 248.782 53.4171C248.742 53.1952 248.896 52.9804 249.124 52.9397C249.353 52.899 249.694 53.0255 249.883 53.2206ZM222.015 66.5147C222.055 66.7366 221.889 66.9535 221.646 66.9967C221.404 67.0399 221.173 66.8937 221.134 66.6718C221.094 66.4499 221.26 66.233 221.502 66.1898C221.745 66.1466 221.975 66.2928 222.015 66.5147ZM52.2632 100.566C52.4897 100.669 52.381 100.918 52.0212 101.121C51.5498 101.388 51.3238 101.25 51.2132 100.63C51.1288 100.156 51.2379 99.9061 51.4553 100.075C51.6726 100.243 52.0363 100.464 52.2632 100.566ZM60.0376 99.8067C59.9151 99.9667 59.5374 100.049 59.1988 99.9891C58.8242 99.9231 58.9116 99.8089 59.4216 99.698C59.883 99.5978 60.16 99.6467 60.0376 99.8067ZM168.41 82.1075C168.472 82.4553 168.121 82.7835 167.583 82.8794C166.801 83.0188 166.72 82.9304 167.088 82.3432C167.331 81.9565 167.703 81.6092 167.916 81.5713C168.128 81.5333 168.351 81.7746 168.41 82.1075ZM120.189 90.9127C120.378 91.1079 120.212 91.3248 119.82 91.3947C119.428 91.4646 119.197 91.3184 119.308 91.0698C119.418 90.8212 119.584 90.6043 119.676 90.5878C119.769 90.5713 120 90.7175 120.189 90.9127ZM102.808 94.1687C102.823 94.2522 102.578 94.5998 102.264 94.941C101.796 95.4491 101.671 95.4425 101.576 94.9063C101.511 94.5465 101.756 94.1989 102.12 94.1341C102.484 94.0693 102.793 94.0848 102.808 94.1687ZM131.899 89.0085C131.917 89.1065 131.753 89.3339 131.535 89.5143C131.317 89.6947 131.104 89.6498 131.062 89.415C131.021 89.1802 131.185 88.9524 131.427 88.9091C131.669 88.8659 131.882 88.9105 131.899 89.0085ZM112.509 93.5308C112.852 93.4695 113.198 93.7826 113.277 94.2264C113.356 94.6702 113.308 95.0535 113.169 95.0781C112.663 95.1684 111.692 94.2791 111.457 93.5101C111.325 93.0758 111.367 92.9281 111.55 93.1813C111.734 93.435 112.165 93.592 112.509 93.5308ZM94.3265 97.6049C94.4193 98.125 94.6933 98.3713 95.0033 98.2127C95.29 98.0663 95.481 97.7042 95.4283 97.4085C95.3756 97.1127 95.0712 96.839 94.7515 96.8006C94.4058 96.759 94.2338 97.0849 94.3265 97.6049ZM122.406 92.6771C122.322 93.0238 122.201 92.9468 122.096 92.4805C122.001 92.0587 122.063 91.8021 122.233 91.9099C122.403 92.0178 122.481 92.3632 122.406 92.6771ZM123.849 93.5903C124.039 93.7855 123.884 94.0004 123.507 94.0677C123.129 94.1351 122.787 94.0087 122.748 93.7868C122.708 93.5649 122.862 93.3501 123.09 93.3094C123.319 93.2687 123.66 93.3951 123.849 93.5903Z" fill="black"/>
</svg>
