<svg width="40" height="80" viewBox="0 0 40 80" fill="none" xmlns="http://www.w3.org/2000/svg">
<path fill-rule="evenodd" clip-rule="evenodd" d="M15.3217 0.595037C14.5256 0.851593 13.5124 1.24198 13.0701 1.46328C12.6279 1.68426 12.0962 1.80274 11.8887 1.72636C11.6813 1.64999 11.4641 1.92645 11.4059 2.34066C11.3223 2.93766 11.1171 3.08128 10.4162 3.03265C9.92987 2.9987 9.53199 3.11751 9.53199 3.29671C9.53199 3.47558 9.37117 3.52128 9.17432 3.3979C8.97779 3.27451 8.70986 3.34894 8.57927 3.56339C8.44868 3.77783 8.13925 3.98641 7.89158 4.02721C7.64391 4.06768 6.84815 4.50311 6.12282 4.99533C5.08164 5.70168 4.79859 6.09859 4.77672 6.88197C4.74938 7.85825 4.76128 7.86609 5.52842 7.35591C6.17397 6.92669 6.4226 6.90841 6.97295 7.25048C7.53808 7.6017 7.68637 7.57689 7.96138 7.08565C8.13925 6.76773 8.44546 6.60811 8.64134 6.73117C8.86071 6.86859 8.92986 6.77425 8.82083 6.48571C8.68573 6.12862 8.93598 6.01699 9.8723 6.01699C11.3889 6.01699 11.8209 5.6364 10.9978 5.02569C10.2737 4.48842 10.4538 4.43816 11.5661 4.86738C12.2728 5.13993 12.3394 5.09717 12.2023 4.45937C12.0888 3.92994 12.13 3.86237 12.3628 4.19661C12.5368 4.44632 12.8511 4.53706 13.0685 4.40062C13.3699 4.21163 13.3596 4.09053 13.0241 3.87641C12.7527 3.70309 13.1567 3.62149 14.092 3.66065C14.9193 3.69525 15.5144 3.85813 15.414 4.02231C15.314 4.18682 15.4333 4.25308 15.679 4.17018C16.3983 3.927 16.3867 3.00719 15.6617 2.77348C15.1142 2.59722 14.6617 1.29877 15.148 1.29877C15.4632 1.29877 16.9299 3.10935 16.9299 3.49876C16.9299 4.08107 18.7495 4.0197 18.9727 3.42988C19.0889 3.12241 19.554 2.96475 20.2651 2.99217C21.1182 3.02449 21.5678 2.81395 22.2028 2.08509C22.8692 1.31966 23.0876 1.22468 23.3272 1.59548C23.491 1.84844 23.5643 2.21598 23.4903 2.41182C23.2517 3.04309 25.0966 3.64303 26.0938 3.25852C26.7383 3.0098 27.1041 3.02188 27.4379 3.30291C27.8088 3.61528 27.8168 3.74226 27.4791 3.96748C27.2366 4.12938 27.6142 4.16136 28.3817 4.04386C29.4206 3.8849 29.7435 3.95344 29.8995 4.36569C30.0082 4.65359 30.3553 4.89121 30.6705 4.89382C30.9854 4.89643 31.8831 5.48397 32.6651 6.19945C33.447 6.91494 34.2067 7.50051 34.3537 7.50051C34.5004 7.50051 34.6207 7.67253 34.6207 7.88273C34.6207 8.09294 34.8597 8.53326 35.1521 8.86098C35.5721 9.33231 35.6754 10.0886 35.6458 12.4772C35.5889 17.0241 35.3045 18.6463 34.419 19.4803C33.9993 19.8756 33.6558 20.3531 33.6558 20.5411C33.6558 20.7295 33.5171 20.8832 33.3476 20.8832C33.1781 20.8832 32.6725 21.5076 32.2234 22.2704C31.7747 23.0336 30.9002 24.0768 30.28 24.5892C29.4527 25.2731 29.1526 25.7777 29.1526 26.4853C29.1526 27.0928 29.024 27.3693 28.8053 27.2322C28.6142 27.1124 28.2536 27.3105 28.0037 27.6725C27.7084 28.1001 27.3231 28.2708 26.9034 28.1595C26.4537 28.04 26.2578 28.1481 26.2578 28.5156C26.2578 28.8293 25.9915 29.0434 25.601 29.0434C24.6225 29.0434 23.637 30.084 24.0474 30.6839C24.2967 31.0475 24.4167 31.0655 24.5399 30.757C24.7534 30.2237 25.1812 30.2361 25.3877 30.7822C25.5138 31.1154 25.1333 31.1974 23.7335 31.138C22.7335 31.0958 21.5852 31.1383 21.1815 31.2326C20.4884 31.3948 20.4794 31.4304 21.0207 31.8773C21.5492 32.3133 21.5247 32.3395 20.7093 32.2109C20.1104 32.1165 19.8248 32.2151 19.8248 32.516C19.8248 33.0543 19.4382 33.0902 18.9522 32.597C18.5363 32.1749 17.8949 32.4788 17.8949 33.0974C17.8949 33.3774 17.6141 33.4682 17.0715 33.3627C16.4298 33.2384 16.2085 33.3565 16.0689 33.8977C15.9705 34.2796 15.6462 34.5923 15.3484 34.5923C15.0509 34.5923 14.6694 34.7268 14.5015 34.891C14.3333 35.0555 13.8341 35.2396 13.3918 35.3003C12.7903 35.3826 12.6054 35.5862 12.6581 36.1085C12.7041 36.5651 12.5095 36.8644 12.0952 36.9744C11.6407 37.0949 11.4619 37.4223 11.4619 38.1329C11.4619 38.6776 11.6221 39.224 11.818 39.3468C12.0711 39.5054 12.0586 39.6422 11.7752 39.8201C11.4677 40.013 11.4963 40.2441 11.9016 40.8313C12.1904 41.2497 12.4268 41.8533 12.4268 42.1725C12.4268 42.4914 12.587 42.7525 12.7829 42.7525C12.9788 42.7525 13.0557 42.9728 12.9537 43.2421C12.8234 43.5875 12.9807 43.7317 13.4876 43.7317C14.1084 43.7317 14.2114 43.9132 14.2413 45.0592C14.267 46.0619 14.4626 46.5205 15.0399 46.9338C15.4603 47.2344 15.9235 47.441 16.0692 47.393C16.2152 47.3454 16.24 47.4609 16.1249 47.6502C16.0094 47.8396 16.3606 48.5094 16.9052 49.1387C17.4494 49.7677 17.8949 50.4358 17.8949 50.6228C17.8949 50.8099 18.3291 51.4036 18.8598 51.9422C19.3906 52.4807 19.8248 53.067 19.8248 53.2445C19.8248 53.427 20.1265 53.4707 20.5167 53.3451C21.0625 53.1695 21.1674 53.2315 21.0133 53.6392C20.9059 53.9231 20.9438 54.2349 21.0979 54.3315C21.252 54.4281 21.4514 54.3227 21.5411 54.0971C21.6392 53.8497 21.7138 53.9137 21.7293 54.2584C21.7431 54.5727 21.8994 54.8296 22.0763 54.8296C22.7933 54.8296 22.1738 52.0257 21.2233 50.9682C20.0313 49.6417 19.8415 49.3293 20.1625 49.2209C20.6218 49.0655 19.765 47.3278 19.2275 47.3248C18.9789 47.3232 18.8679 47.1185 18.9699 46.8492C19.0911 46.5287 18.9943 46.4363 18.6694 46.563C18.406 46.6655 18.2323 46.6142 18.2838 46.4487C18.3352 46.2833 17.8273 45.3354 17.1554 44.3424C16.4832 43.3495 15.9113 42.1813 15.8843 41.7472C15.8572 41.3127 15.7238 40.8776 15.5877 40.7807C15.2439 40.5352 16.8495 38.8356 17.4253 38.8356C17.6836 38.8356 17.8949 38.6355 17.8949 38.3914C17.8949 38.0934 18.1599 37.9984 18.699 38.1028C19.2661 38.2128 19.5031 38.1152 19.5031 37.7722C19.5031 37.4921 19.9136 37.2019 20.4681 37.0893C20.9988 36.9816 21.433 36.6852 21.433 36.4306C21.433 35.8836 22.498 35.3865 22.654 35.8611C22.8081 36.3301 23.6846 35.9152 23.6846 35.3734C23.6846 34.9344 24.0564 34.7852 24.8834 34.8926C25.3906 34.9585 26.9391 33.9565 27.4823 33.2106C27.7133 32.8934 28.1063 32.6339 28.3556 32.6339C28.8313 32.6339 29.5701 31.5342 29.2871 31.2473C29.1967 31.1553 29.4913 30.9865 29.9417 30.8716C30.3923 30.757 30.7609 30.5237 30.7609 30.3529C30.7609 30.1826 30.9571 30.1196 31.1971 30.2129C31.4457 30.3099 32.0337 29.8741 32.5641 29.2004C33.0761 28.5499 34.0739 27.3852 34.7815 26.6123C37.2409 23.926 38.8227 21.4479 38.3708 20.9893C38.2534 20.8705 38.3975 20.5039 38.6909 20.1749C39.1965 19.6079 39.5223 17.154 39.4525 14.4367C39.4371 13.8367 39.5867 13.3758 39.7964 13.3758C40.0518 13.3758 40.0662 13.2485 39.8437 12.9678C39.6655 12.7436 39.4181 12.0457 39.2936 11.4174C39.0058 9.96195 37.8703 7.50051 37.4869 7.50051C37.3258 7.50051 37.1939 7.3001 37.1939 7.05496C37.1939 6.42141 35.9121 4.8478 35.5705 5.06192C35.4136 5.1605 35.1006 4.94148 34.8755 4.57557C34.6503 4.20935 34.2054 3.91003 33.887 3.91003C33.3209 3.91003 31.3486 2.68143 31.1363 2.19639C31.0771 2.06158 30.6747 1.95159 30.2414 1.95159C29.8085 1.95159 29.3707 1.73126 29.2691 1.46197C29.1671 1.19269 28.8821 0.972364 28.6358 0.972364C28.3894 0.972364 28.1877 0.808833 28.1877 0.609072C28.1877 0.390705 27.802 0.302902 27.2227 0.389074C26.692 0.468064 26.2578 0.411596 26.2578 0.26308C26.2578 -0.127303 25.161 -0.0688758 24.7547 0.343377C24.509 0.592752 24.0365 0.591447 23.114 0.33946C21.2532 -0.169083 18.8598 -0.0300335 18.8598 0.586224C18.8598 1.0148 18.792 1.01349 18.297 0.576758C17.6234 -0.0179562 17.2181 -0.015345 15.3217 0.595037ZM22.4488 2.6044C22.4488 3.05321 22.5218 3.23698 22.6109 3.01241C22.7003 2.78817 22.7003 2.42096 22.6109 2.19639C22.5218 1.97215 22.4488 2.15559 22.4488 2.6044ZM8.8784 5.13406C8.87293 5.26886 8.65003 5.67198 8.38338 6.03005C7.96717 6.58885 7.85523 6.61203 7.59437 6.19325C7.16015 5.4967 7.21032 5.2088 7.73043 5.4115C7.97778 5.50779 8.27595 5.42978 8.39271 5.23785C8.63877 4.83376 8.8932 4.77925 8.8784 5.13406ZM2.93817 7.37321C2.30806 7.86772 2.31095 7.87621 3.0739 7.7711C3.50234 7.71202 3.91245 7.48027 3.98514 7.25571C4.16301 6.70799 3.72299 6.75728 2.93817 7.37321ZM2.96293 8.91712C3.05396 9.15768 2.90472 9.54284 2.63131 9.77296C1.95907 10.3389 2.00506 10.7646 2.7381 10.7646C3.46246 10.7646 4.20257 9.95052 3.9118 9.47332C3.79762 9.28596 3.85777 9.13255 4.04497 9.13255C4.23217 9.13255 4.38559 8.98566 4.38559 8.80614C4.38559 8.62662 4.02824 8.47973 3.59144 8.47973C3.06007 8.47973 2.85229 8.62433 2.96293 8.91712ZM0.0346323 10.4525C-0.069904 10.6242 0.0703362 10.7646 0.34599 10.7646C0.621644 10.7646 0.847442 10.9115 0.847442 11.091C0.847442 11.2705 0.987682 11.4174 1.15912 11.4174C1.60268 11.4174 1.20769 10.523 0.672143 10.3145C0.426081 10.2185 0.139169 10.2808 0.0346323 10.4525ZM37.9771 19.5433C38.0752 19.7042 37.9462 19.917 37.6908 20.0163C37.3811 20.137 37.2862 20.0398 37.4055 19.7241C37.613 19.1758 37.7307 19.1386 37.9771 19.5433ZM28.0857 29.1048C27.9831 29.3649 27.9069 29.2875 27.8915 28.9073C27.8776 28.5633 27.9535 28.3707 28.0603 28.479C28.1671 28.5874 28.1787 28.8691 28.0857 29.1048ZM29.3678 28.8887C29.6734 29.1991 29.7673 29.5986 29.6165 29.9495C29.3987 30.4567 29.3604 30.4479 29.2292 29.8594C29.1491 29.5004 28.9365 29.0232 28.757 28.7986C28.2938 28.2195 28.7789 28.291 29.3678 28.8887ZM15.8862 39.4068C15.9692 39.6627 15.7086 39.8148 15.1876 39.8148C14.6472 39.8148 14.3567 39.6356 14.3567 39.3024C14.3567 38.6887 15.6826 38.7791 15.8862 39.4068ZM15.8884 43.9181C15.5684 44.2429 14.727 43.657 14.8907 43.2235C15.0345 42.8439 15.1429 42.8508 15.552 43.2659C15.8212 43.5391 15.9727 43.8326 15.8884 43.9181ZM17.0515 73.0947C16.5436 73.6408 15.892 74.0876 15.6035 74.0876C14.709 74.0876 14.3027 74.8687 14.8257 75.5832C15.0776 75.9276 15.2043 76.5396 15.1072 76.9437C14.9791 77.4754 15.0731 77.6781 15.4478 77.6781C15.7878 77.6781 15.965 77.963 15.965 78.5098C15.965 79.6499 17.4867 80.3217 18.9882 79.8448C20.2854 79.4325 21.7425 77.4248 21.0619 76.9871C20.7273 76.7723 20.7569 76.7077 21.1918 76.7038C21.5765 76.7005 21.7547 76.4404 21.7547 75.8829C21.7547 75.375 21.5723 75.0668 21.2722 75.0668C21.0069 75.0668 20.7897 74.8622 20.7897 74.6121C20.7897 74.0191 19.9187 73.6835 19.6878 74.1875C19.5893 74.4019 19.59 74.2469 19.6887 73.8428C19.8023 73.3783 19.7215 73.1084 19.4697 73.1084C19.2507 73.1084 18.8248 72.8819 18.5231 72.6051C18.0232 72.1458 17.8936 72.1889 17.0515 73.0947Z" fill="black"/>
</svg>
