<svg width="544" height="41" viewBox="0 0 544 41" fill="none" xmlns="http://www.w3.org/2000/svg">
<path fill-rule="evenodd" clip-rule="evenodd" d="M267.42 0.292782C267.271 0.438763 264.577 0.73409 261.434 0.948017C256.462 1.28707 249.703 2.60292 246.597 3.83536C246.059 4.04929 244.885 4.31299 243.988 4.42063C241.055 4.77448 238.451 5.59521 238.003 6.30628C237.708 6.77383 237.244 6.7301 236.593 6.17308C236.043 5.70218 235.463 5.61001 235.253 5.95983C234.932 6.49599 228.749 7.77888 227.578 7.55217C227.343 7.50642 226.83 7.86836 226.437 8.35608C225.991 8.91108 224.766 9.14452 223.168 8.9797C221.762 8.83439 220.423 9.0315 220.192 9.4163C219.962 9.80177 219.073 10.1173 218.218 10.1173C217.364 10.1173 216.48 10.4247 216.255 10.8008C216.029 11.1768 215.623 11.3437 215.352 11.1708C215.082 10.9986 212.537 11.456 209.699 12.1873C206.86 12.9192 203.652 13.6753 202.57 13.8677C201.488 14.0601 198.695 14.6703 196.363 15.2246C194.031 15.7783 191.095 16.3999 189.839 16.6051C188.583 16.8109 185.207 17.4964 182.337 18.1288C179.315 18.7948 174.439 19.2623 170.757 19.2388C167.097 19.2159 164.278 19.485 164.119 19.8718C163.948 20.2889 163.637 20.2485 163.302 19.7649C162.966 19.2805 160.78 18.9939 157.544 19.0087C152.952 19.0302 143.356 17.5576 134.386 15.4554C132.771 15.0766 130.801 14.6568 130.008 14.5223C125.414 13.7433 117.643 11.8421 117.012 11.343C116.607 11.0221 115.139 10.6427 113.751 10.4994C112.362 10.3568 109.464 9.93968 107.311 9.57237C102.321 8.72205 90.1834 8.63257 89.6981 9.44254C89.4952 9.78092 88.85 9.86905 88.2641 9.63695C87.4701 9.32279 87.341 9.45868 87.7579 10.1711C88.2021 10.9313 88.1245 10.9689 87.3755 10.3547C86.6638 9.7715 85.0041 9.82195 80.5632 10.5633C77.3339 11.1028 74.1045 11.8112 73.3869 12.1375C72.6693 12.4644 70.761 12.9145 69.1464 13.1371C65.8413 13.5933 58.1313 15.8408 55.0214 17.2549C53.8908 17.7695 52.6591 18.19 52.2846 18.19C51.9101 18.19 49.3495 19.2495 46.5938 20.5445C43.8374 21.8395 41.0719 22.8991 40.4476 22.8991C39.8232 22.8991 38.566 23.5045 37.6533 24.2445C36.7413 24.9845 35.5761 25.59 35.0647 25.59C34.5532 25.59 33.9145 25.8167 33.645 26.0945C33.3763 26.3717 32.96 26.6139 32.7212 26.632C30.3361 26.8137 27.0265 29.1433 27.658 30.1968C27.8492 30.5164 27.3534 30.6489 26.5561 30.4915C24.9238 30.1699 23.3235 30.7895 18.5271 33.6001C16.5067 34.7841 14.2559 35.5463 12.7789 35.5463C11.4441 35.5463 9.8555 36.0038 9.24942 36.5628C8.06729 37.654 3.63101 38.3113 2.85466 37.5107C2.59631 37.2443 1.84671 37.0263 1.18845 37.0263C-0.366208 37.0263 -0.407308 39.4616 1.1343 40.2655C3.21087 41.3486 8.96172 41.2046 10.7062 40.026C11.827 39.2692 12.9655 39.0687 14.3564 39.3836C16.2777 39.8188 21.0486 37.765 34.7854 30.591C35.8012 30.0603 36.9938 29.6264 37.4361 29.6264C37.8778 29.6264 39.7612 28.8695 41.6206 27.9445C43.4799 27.0195 45.2864 26.2627 45.6347 26.2627C46.2702 26.2627 47.5873 25.7252 54.0023 22.8473C55.8995 21.9963 57.9545 21.2274 58.5691 21.1386C60.8062 20.8143 64.3128 19.6976 66.863 18.4968C68.2982 17.8213 69.9129 17.2186 70.4511 17.156C70.9894 17.0941 71.5765 16.9784 71.7559 16.8984C71.9353 16.8183 73.4045 16.6521 75.0205 16.529C76.6365 16.4059 79.5723 15.8314 81.5444 15.2515C88.073 13.3316 105.743 12.8344 109.661 14.4597C110.235 14.6985 110.969 14.8304 111.292 14.753C111.614 14.6757 112.319 14.7914 112.857 15.01C113.395 15.2287 114.863 15.5516 116.119 15.7278C120.147 16.2929 122.937 16.9603 124.208 17.6612C124.889 18.0366 126.797 18.4887 128.448 18.6649C130.099 18.8405 131.795 19.2785 132.217 19.6377C132.639 19.9963 133.373 20.2048 133.848 20.0999C134.323 19.9956 136.033 20.2593 137.648 20.6865C146.244 22.9616 163.297 24.5944 169.126 23.6996C171.359 23.3572 172.877 23.3727 172.877 23.738C172.877 24.0824 173.807 24.1362 174.997 23.8604C176.164 23.59 177.558 23.3929 178.096 23.4231C179.078 23.477 187.046 22.1389 193.754 20.7935C201.755 19.1883 219.049 15.0141 224.09 13.4708C226.243 12.8116 228.942 12.0702 230.087 11.8226C231.652 11.4849 232.083 11.0907 231.82 10.2404C231.543 9.34835 231.605 9.3053 232.112 10.0379C232.58 10.7153 233.437 10.8337 235.272 10.4738C236.657 10.202 238.524 9.84415 239.421 9.67799C240.318 9.51183 242.667 8.95413 244.64 8.4395C246.614 7.92419 251.311 7.00592 255.079 6.39777C258.846 5.78963 262.369 5.12027 262.907 4.9097C263.446 4.69914 265.647 4.39238 267.8 4.22823C269.953 4.06409 271.935 3.58107 272.204 3.15523C272.522 2.65136 272.864 2.6157 273.183 3.05365C274.026 4.21343 275.301 4.11454 275.354 2.88547C275.395 1.94769 275.482 1.91338 275.778 2.71729C276.332 4.21747 277.382 4.71529 278.588 4.04996C279.883 3.33552 282.734 3.57905 283.909 4.50539C285.271 5.58041 289.146 7.24474 291.45 7.74524C292.616 7.99886 293.57 8.48457 293.57 8.82497C293.57 9.16605 294.451 9.44455 295.527 9.44455C296.603 9.44455 297.484 9.73853 297.484 10.0984C297.484 11.0093 303.81 12.8109 309.424 13.4991C312.007 13.8159 315.295 14.3111 316.73 14.5997C320.508 15.3592 330.005 15.197 330.818 14.3595C331.308 13.8543 332.405 13.9216 334.553 14.5882C336.413 15.1654 337.678 15.2778 337.807 14.8768C337.939 14.4691 338.6 14.4483 339.554 14.8223C340.46 15.1775 341.844 15.1742 342.935 14.8129C343.952 14.4772 349.186 13.7366 354.569 13.1681C359.951 12.5996 365.088 11.9639 365.986 11.7554C366.883 11.5468 368.35 11.2845 369.247 11.1728C370.145 11.0611 372.346 10.718 374.14 10.4113C375.935 10.1045 377.8 9.93295 378.285 10.0305C378.771 10.128 379.651 10.0022 380.242 9.75132C380.833 9.49972 383.607 9.20035 386.406 9.08666C389.206 8.9723 391.858 8.56934 392.3 8.19126C392.765 7.79301 394.059 7.70421 395.365 7.9807C396.609 8.24306 398.948 8.30159 400.562 8.10986C402.177 7.91881 404.733 7.93899 406.243 8.15561C407.752 8.37223 408.83 8.28814 408.639 7.96792C408.447 7.6477 409.487 7.47077 410.949 7.57437C412.412 7.67797 413.609 7.97128 413.61 8.22625C413.61 8.48188 415.648 8.89763 418.138 9.15057C421.046 9.4459 422.789 9.9417 423.011 10.5364C423.2 11.0456 423.817 11.4627 424.381 11.4627C425.241 11.4627 428.8 13.6336 429.92 14.8418C432.036 17.1251 445.931 23.3168 450.229 23.8927C452.156 24.1504 454.76 24.4995 456.016 24.6684C457.272 24.8365 458.006 24.735 457.647 24.4416C457.288 24.1483 456.994 23.3155 456.994 22.5903C456.994 21.5287 456.513 21.2556 454.515 21.1836C452.987 21.1291 452.361 21.3088 452.884 21.6505C453.479 22.04 453.5 22.2089 452.956 22.2163C452.528 22.2216 451.995 21.9189 451.769 21.5435C451.178 20.558 447.144 18.928 444.639 18.6629C443.457 18.5378 441.062 17.4608 439.317 16.2687C437.572 15.0766 435.499 13.935 434.711 13.7305C433.922 13.5267 433.117 12.9326 432.924 12.4113C432.729 11.8892 432.176 11.4627 431.695 11.4627C431.212 11.4627 430.25 10.9185 429.554 10.2538C428.309 9.06379 424.935 7.49634 419.808 5.72572C416.813 4.69107 395.998 3.96923 391.13 4.73143C389.427 4.99783 387.774 5.63759 387.458 6.1529C387.033 6.84447 386.88 6.86599 386.872 6.23565C386.864 5.57301 385.431 5.48017 380.501 5.82259C377.003 6.06544 373.628 6.53568 373.001 6.86734C372.374 7.19966 370.025 7.62281 367.782 7.80848C362.634 8.23365 359.455 8.69648 358.795 9.11693C358.512 9.29723 355.831 9.60063 352.837 9.79101C349.842 9.98139 345.19 10.4341 342.499 10.7974C339.808 11.1607 336.818 11.3053 335.854 11.1183C334.891 10.932 333.959 11.0174 333.785 11.3087C333.61 11.5993 331.756 11.7614 329.665 11.6686C327.575 11.5751 322.34 11.3786 318.035 11.2313C310.618 10.977 308.913 10.7187 306.618 9.49972C306.079 9.21381 304.024 8.59624 302.051 8.12735C300.077 7.65914 297.254 6.56326 295.776 5.69275C294.299 4.82225 292.936 4.26859 292.748 4.46234C292.56 4.65609 291.311 4.34259 289.973 3.76607C288.634 3.18887 286.9 2.71729 286.118 2.71729C285.337 2.71729 284.374 2.38429 283.98 1.97796C283.586 1.57096 282.169 1.12898 280.831 0.995107C279.493 0.861908 278.251 0.59954 278.07 0.413195C277.889 0.226177 277.192 0.376197 276.522 0.746197C275.658 1.22316 275.303 1.19222 275.303 0.64058C275.303 0.0546353 275.074 0.0573265 274.382 0.649326C273.753 1.18818 273.328 1.21374 273.039 0.732072C272.643 0.0714545 268.015 -0.290472 267.42 0.292782ZM228.113 10.3897C228.113 10.9286 227.716 11.1775 227.188 10.9683C226.427 10.6676 226.418 10.5021 227.134 10.0339C227.613 9.72104 228.029 9.4607 228.058 9.45464C228.088 9.44926 228.113 9.86971 228.113 10.3897ZM225.068 10.79C225.068 11.16 224.939 11.4627 224.781 11.4627C224.622 11.4627 224.312 11.16 224.09 10.79C223.868 10.42 223.998 10.1173 224.378 10.1173C224.757 10.1173 225.068 10.42 225.068 10.79ZM222.133 11.4627C221.911 11.8327 221.38 12.1308 220.953 12.1254C220.485 12.1186 220.566 11.8543 221.154 11.4627C222.407 10.6272 222.633 10.6272 222.133 11.4627ZM529.087 12.6481C527.832 12.7968 526.438 13.2334 525.988 13.6181C525.441 14.0864 524.9 14.0958 524.354 13.6464C523.89 13.2636 522.977 13.2078 522.234 13.5166C521.516 13.8153 519.845 14.0803 518.521 14.1065C517.197 14.1321 515.919 14.4772 515.682 14.8721C515.446 15.2677 514.851 15.4325 514.361 15.2381C513.355 14.8405 505.621 16.0891 504.619 16.8116C504.26 17.0699 502.535 17.3303 500.784 17.3888C499.034 17.4473 497.262 17.7864 496.848 18.1409C496.433 18.4961 495.516 18.6972 494.811 18.5876C494.106 18.4786 492.648 18.6723 491.571 19.0188C489.329 19.7393 488.715 19.8153 477.219 20.7914C472.554 21.1877 466.829 21.4352 464.497 21.3424C459.654 21.1486 457.992 21.7003 458.306 23.3962C458.426 24.0474 458.548 24.7666 458.575 24.9933C458.64 25.5261 475.464 25.2462 480.154 24.6347C488.683 23.5234 492.943 22.6643 494.226 21.7978C495.008 21.2691 496.975 20.926 498.804 20.9986C500.567 21.0686 503.478 20.7787 505.272 20.3535C508.551 19.5765 513.848 18.4974 519.298 17.4957C520.913 17.1984 523.486 16.6252 525.016 16.2216C526.547 15.818 531.149 15.4116 535.244 15.3188C542.619 15.1513 544.281 14.7551 543.028 13.4627C542.337 12.7503 532.889 12.1987 529.087 12.6481Z" fill="black"/>
</svg>
